<?xml version="1.0" encoding="UTF-8" standalone="no"?><!DOCTYPE svg PUBLIC "-//W3C//DTD SVG 1.1//EN" "http://www.w3.org/Graphics/SVG/1.1/DTD/svg11.dtd"><svg width="100%" height="100%" viewBox="0 0 1200 550" version="1.1" xmlns="http://www.w3.org/2000/svg" xmlns:xlink="http://www.w3.org/1999/xlink" xml:space="preserve" style="fill-rule:evenodd;clip-rule:evenodd;stroke-linecap:round;stroke-linejoin:round;stroke-miterlimit:1.5;"><g id="Phone"><path d="M843.745,138.229c0,-7.709 -6.259,-13.967 -13.968,-13.967l-145.21,0c-7.709,0 -13.967,6.258 -13.967,13.967l0,341.669c0,7.709 6.258,13.968 13.967,13.968l145.21,0c7.709,0 13.968,-6.259 13.968,-13.968l0,-341.669Z" style="fill:#2e2e2e;"/><path d="M780.939,150.547c0,-0.505 -0.411,-0.916 -0.916,-0.916l-45.702,0c-0.505,0 -0.916,0.411 -0.916,0.916l0,1.832c0,0.506 0.411,0.916 0.916,0.916l45.702,0c0.505,0 0.916,-0.41 0.916,-0.916l0,-1.832Z" style="fill:#4b4b4b;"/><circle cx="757.172" cy="465.052" r="13.737" style="fill:#4b4b4b;"/><rect id="IMG_3236" x="679.867" y="165.704" width="154.61" height="274.456" style="fill:#1f1f1f;"/></g><circle cx="600" cy="309.064" r="95.247" style="fill:none;stroke:#ceb45c;stroke-width:100px;"/><path d="M489.286,226.691c0,0 27.746,-25.493 45.306,-19.592c15.081,5.067 -0.128,-4.845 21.507,-4.066c0.543,0.019 4.72,-0.88 10.382,1.267c19.733,7.481 1.128,-36.44 26.865,-27.482c48.854,17.003 35.368,16.172 46.915,12.477c11.547,-3.696 18.565,-2.815 34.238,8.487c15.672,11.301 -3.924,22.376 29.998,40.389c33.921,18.014 14.68,23.416 18.233,36.829c3.554,13.413 11.632,73.569 -7.471,78.712c-19.103,5.143 -3.316,8.847 -10.269,23.827c-6.952,14.98 -18.307,51.042 -28.294,26.772c-9.987,-24.27 1,9.659 -31.498,17.635c-32.498,7.976 -12.37,9.831 -30.912,18.922c-18.542,9.09 -41.856,0.822 -40.52,-9.759c1.337,-10.582 -22.545,-8.817 -34.904,-14.548c-12.36,-5.73 -28.554,5.632 -24.319,-16.249c4.235,-21.881 -4.734,6.978 -21.505,-25.22c-16.771,-32.199 -36.706,-50.369 -21.418,-66.028c15.288,-15.66 13.52,-16.726 11.558,-34.064c-1.963,-17.338 -7.269,-13.074 -3.934,-20.951c3.335,-7.878 -4.865,-13.741 -0.525,-15.373l10.567,-11.985Zm175.991,73.342c0,0 -0.557,18.18 -8.518,22.253c-6.837,3.498 1.716,1.59 -5.851,8.797c-0.19,0.182 -1.289,1.927 -3.94,3.158c-9.24,4.29 12.201,12.682 0.426,18.546c-22.351,11.133 -17.515,6.757 -20.134,11.991c-2.619,5.233 -5.291,7.359 -14.48,8.958c-9.189,1.599 -6.403,-8.903 -24.065,-3.267c-17.663,5.636 -13.038,-2.831 -18.868,-6.128c-5.829,-3.298 -29.325,-20.802 -24.657,-29.133c4.668,-8.33 -1.936,-4.129 -4.763,-11.583c-2.827,-7.454 -11.448,-23.54 0.301,-18.801c11.749,4.739 -3.673,-2.913 4.536,-16.824c8.209,-13.912 0.779,-7.588 3.895,-17.057c3.116,-9.468 13.836,-14.729 17.039,-10.698c3.202,4.031 10.649,-4.81 16.797,-7.145c6.148,-2.334 7.688,-11.759 13.814,-2.915c6.127,8.843 -0.812,-3.988 15.963,1.083c16.775,5.071 29.774,4.317 30.023,14.878c0.25,10.561 1.214,10.311 7.863,15.482c6.649,5.171 6.966,1.901 8.561,5.709c1.595,3.809 6.386,2.956 5.485,5.005l0.573,7.691Z" style="fill:#f912dc;"/><path d="M624.897,231.508l10.14,10.14" style="fill:none;stroke:#0068ff;stroke-width:9.5px;"/><path d="M682.972,285.975l-10.631,9.624" style="fill:none;stroke:#0068ff;stroke-width:9.5px;"/><path d="M668.731,360.287l14.285,1.254" style="fill:none;stroke:#0068ff;stroke-width:9.5px;"/><path d="M564.674,387.267l-6.113,-12.972" style="fill:none;stroke:#0068ff;stroke-width:9.5px;"/><path d="M507.651,346.293l8.481,-11.564" style="fill:none;stroke:#0068ff;stroke-width:9.5px;"/><path d="M521.07,276.987l-13.692,-4.263" style="fill:none;stroke:#0068ff;stroke-width:9.5px;"/><path d="M623.906,429.286l-3.262,-13.965" style="fill:none;stroke:#0068ff;stroke-width:9.5px;"/><path d="M717.973,309.342l11.164,-9.001" style="fill:none;stroke:#0068ff;stroke-width:9.5px;"/><path d="M717.973,309.342l11.164,-9.001" style="fill:none;stroke:#0068ff;stroke-width:9.5px;"/><path d="M594.93,227.33l10.14,10.14" style="fill:none;stroke:#0068ff;stroke-width:9.5px;"/><path d="M688.634,256.253l-10.632,9.624" style="fill:none;stroke:#0068ff;stroke-width:9.5px;"/><path d="M643.085,376.342l14.285,1.254" style="fill:none;stroke:#0068ff;stroke-width:9.5px;"/><path d="M591.462,401.334l-6.113,-12.972" style="fill:none;stroke:#0068ff;stroke-width:9.5px;"/><path d="M508.077,376.547l8.481,-11.564" style="fill:none;stroke:#0068ff;stroke-width:9.5px;"/><path d="M605.072,181.025l13.768,-4.01" style="fill:none;stroke:#0068ff;stroke-width:9.5px;"/><path d="M549.543,266.752l-13.692,-4.263" style="fill:none;stroke:#0068ff;stroke-width:9.5px;"/><path d="M681.98,207.971l-13.692,-4.262" style="fill:none;stroke:#0068ff;stroke-width:9.5px;"/><path d="M487.7,235.003l12.499,-7.031" style="fill:none;stroke:#0068ff;stroke-width:9.5px;"/><path d="M710.621,338.692l11.164,-9" style="fill:none;stroke:#0068ff;stroke-width:9.5px;"/><path d="M710.621,338.692l11.164,-9" style="fill:none;stroke:#0068ff;stroke-width:9.5px;"/><path d="M522.945,236.333l14.204,1.969" style="fill:none;stroke:#0068ff;stroke-width:9.5px;"/><path d="M643.364,252.747l13.78,-3.967" style="fill:none;stroke:#ffe500;stroke-width:9.5px;"/><path d="M660.843,303.364l3.278,13.961" style="fill:none;stroke:#ffe500;stroke-width:9.5px;"/><path d="M696.528,364.694l8.01,-11.895" style="fill:none;stroke:#ffe500;stroke-width:9.5px;"/><path d="M554.478,361.035l-14.31,-0.927" style="fill:none;stroke:#ffe500;stroke-width:9.5px;"/><path d="M646.49,408.32l-14.31,-0.927" style="fill:none;stroke:#ffe500;stroke-width:9.5px;"/><path d="M651.328,196.968l-10.789,-9.448" style="fill:none;stroke:#ffe500;stroke-width:9.5px;"/><path d="M525.836,324.812l-6.016,-13.017" style="fill:none;stroke:#ffe500;stroke-width:9.5px;"/><path d="M494.845,266.77l-10.355,9.92" style="fill:none;stroke:#ffe500;stroke-width:9.5px;"/><path d="M555.12,236.333l8.597,-11.479" style="fill:none;stroke:#ffe500;stroke-width:9.5px;"/><path d="M608.493,214.006l5.562,13.218" style="fill:none;stroke:#ffe500;stroke-width:9.5px;"/><path d="M701.268,270.461l-13.478,4.898" style="fill:none;stroke:#ffe500;stroke-width:9.5px;"/><path d="M644.915,357.417l12.755,6.554" style="fill:none;stroke:#ffe500;stroke-width:9.5px;"/><path d="M574.192,409.286l-0.764,-14.32" style="fill:none;stroke:#ffe500;stroke-width:9.5px;"/><path d="M574.192,409.286l-0.764,-14.32" style="fill:none;stroke:#ffe500;stroke-width:9.5px;"/><path d="M689.999,375.768l10.786,9.45" style="fill:none;stroke:#ffe500;stroke-width:9.5px;"/><path d="M492.846,365.167l12.219,-7.507" style="fill:none;stroke:#ffe500;stroke-width:9.5px;"/><path d="M543.731,284.854l-11.07,-9.115" style="fill:none;stroke:#ffe500;stroke-width:9.5px;"/><path d="M676.168,226.074l-11.07,-9.116" style="fill:none;stroke:#ffe500;stroke-width:9.5px;"/><path d="M698.82,323.785l13.736,-4.12" style="fill:none;stroke:#ffe500;stroke-width:9.5px;"/><path d="M698.82,323.785l13.736,-4.12" style="fill:none;stroke:#ffe500;stroke-width:9.5px;"/><path d="M628.056,218.631l13.962,-3.271" style="fill:none;stroke:#ff001b;stroke-width:9.5px;"/><path d="M695.677,289.77l2.574,14.108" style="fill:none;stroke:#ff001b;stroke-width:9.5px;"/><path d="M662.877,348.39l8.596,-11.478" style="fill:none;stroke:#ff001b;stroke-width:9.5px;"/><path d="M557.346,398.317l-14.246,-1.643" style="fill:none;stroke:#ff001b;stroke-width:9.5px;"/><path d="M494.444,345.128l-5.356,-13.303" style="fill:none;stroke:#ff001b;stroke-width:9.5px;"/><path d="M524.261,289.856l-10.841,9.388" style="fill:none;stroke:#ff001b;stroke-width:9.5px;"/><path d="M577.194,218.631l13.963,-3.271" style="fill:none;stroke:#ff001b;stroke-width:9.5px;"/><path d="M698.203,238.971l2.574,14.108" style="fill:none;stroke:#ff001b;stroke-width:9.5px;"/><path d="M623.906,381.073l8.596,-11.478" style="fill:none;stroke:#ff001b;stroke-width:9.5px;"/><path d="M605.211,415.519l-14.246,-1.644" style="fill:none;stroke:#ff001b;stroke-width:9.5px;"/><path d="M605.211,415.519l-14.246,-1.644" style="fill:none;stroke:#ff001b;stroke-width:9.5px;"/><path d="M663.882,393.627l11.122,-9.053" style="fill:none;stroke:#ff001b;stroke-width:9.5px;"/><path d="M502.175,395.398l-5.356,-13.302" style="fill:none;stroke:#ff001b;stroke-width:9.5px;"/><path d="M588.913,192.388l3.85,-13.814" style="fill:none;stroke:#ff001b;stroke-width:9.5px;"/><path d="M582.136,249.185l-10.84,9.389" style="fill:none;stroke:#ff001b;stroke-width:9.5px;"/><path d="M513.783,260.725l9.162,-11.033" style="fill:none;stroke:#ff001b;stroke-width:9.5px;"/><path d="M516.63,213.136l1.734,14.236" style="fill:none;stroke:#ff001b;stroke-width:9.5px;"/><path d="M655.245,227.33l-11.881,8.03" style="fill:none;stroke:#00ff24;stroke-width:9.5px;"/><path d="M685.638,316.494l-7.43,-12.266" style="fill:none;stroke:#00ff24;stroke-width:9.5px;"/><path d="M689.3,337.584l-3.944,13.788" style="fill:none;stroke:#00ff24;stroke-width:9.5px;"/><path d="M534.701,380.935l13.897,-3.538" style="fill:none;stroke:#00ff24;stroke-width:9.5px;"/><path d="M623.522,200.716l13.18,5.653" style="fill:none;stroke:#00ff24;stroke-width:9.5px;"/><path d="M498.909,316.932l9.742,10.523" style="fill:none;stroke:#00ff24;stroke-width:9.5px;"/><path d="M496.144,294.796l6.786,-12.633" style="fill:none;stroke:#00ff24;stroke-width:9.5px;"/><path d="M541.78,212.389l-4.631,13.572" style="fill:none;stroke:#00ff24;stroke-width:9.5px;"/><path d="M590.009,239.674l-13.748,-4.081" style="fill:none;stroke:#00ff24;stroke-width:9.5px;"/><path d="M676.55,250.725l4.758,-13.528" style="fill:none;stroke:#00ff24;stroke-width:9.5px;"/><path d="M647.246,388.962l-13.156,5.707" style="fill:none;stroke:#00ff24;stroke-width:9.5px;"/><path d="M600.268,391.382l11.558,8.49" style="fill:none;stroke:#00ff24;stroke-width:9.5px;"/><path d="M600.268,391.382l11.558,8.49" style="fill:none;stroke:#00ff24;stroke-width:9.5px;"/><path d="M684.615,406.938l-14.147,2.348" style="fill:none;stroke:#00ff24;stroke-width:9.5px;"/><path d="M521.025,379.534l-1.943,14.208" style="fill:none;stroke:#00ff24;stroke-width:9.5px;"/><path d="M613.526,191.278l-10.192,10.089" style="fill:none;stroke:#00ff24;stroke-width:9.5px;"/><path d="M548.161,253.535l14.068,-2.779" style="fill:none;stroke:#00ff24;stroke-width:9.5px;"/><path d="M498.26,243.07l-7.636,12.139" style="fill:none;stroke:#00ff24;stroke-width:9.5px;"/><path d="M722.369,344.902l-5.525,13.234" style="fill:none;stroke:#00ff24;stroke-width:9.5px;"/><path d="M722.369,344.902l-5.525,13.234" style="fill:none;stroke:#00ff24;stroke-width:9.5px;"/><g><path d="M184.453,196.035l0,-102.375l28.336,0c7.922,0 15.094,1.875 21.516,5.625c6.422,3.75 11.461,9.012 15.117,15.785c3.656,6.774 5.531,14.356 5.625,22.746l0,13.29c0,8.531 -1.793,16.218 -5.379,23.062c-3.586,6.844 -8.59,12.188 -15.012,16.031c-6.422,3.844 -13.594,5.789 -21.515,5.836l-28.688,0Zm3.797,-98.578l0,94.781l24.539,0c7.172,0 13.699,-1.746 19.582,-5.238c5.883,-3.492 10.488,-8.367 13.816,-14.625c3.329,-6.258 5.016,-13.207 5.063,-20.848l0,-13.148c0,-7.641 -1.629,-14.578 -4.887,-20.813c-3.258,-6.234 -7.804,-11.121 -13.64,-14.66c-5.836,-3.539 -12.293,-5.355 -19.371,-5.449l-25.102,0Z" style="fill:#fff;fill-rule:nonzero;"/><path d="M270.938,156.52c0,-7.266 1.394,-13.793 4.183,-19.582c2.789,-5.79 6.727,-10.301 11.813,-13.536c5.086,-3.234 10.839,-4.851 17.261,-4.851c6.375,0 12.094,1.57 17.157,4.711c5.062,3.14 9.011,7.594 11.847,13.359c2.836,5.766 4.278,12.258 4.324,19.477l0,3.375c0,7.312 -1.382,13.851 -4.148,19.617c-2.766,5.766 -6.691,10.266 -11.777,13.5c-5.086,3.234 -10.84,4.851 -17.262,4.851c-6.422,0 -12.176,-1.593 -17.262,-4.781c-5.086,-3.187 -9.035,-7.652 -11.847,-13.394c-2.813,-5.743 -4.243,-12.2 -4.289,-19.371l0,-3.375Zm3.796,2.953c0,6.328 1.254,12.129 3.762,17.402c2.508,5.273 6,9.387 10.477,12.34c4.476,2.953 9.597,4.43 15.363,4.43c8.672,0 15.738,-3.258 21.199,-9.774c5.461,-6.515 8.192,-14.906 8.192,-25.172l0,-2.179c0,-6.235 -1.266,-12 -3.797,-17.297c-2.532,-5.297 -6.035,-9.434 -10.512,-12.41c-4.477,-2.977 -9.551,-4.465 -15.223,-4.465c-8.672,0 -15.75,3.304 -21.234,9.914c-5.484,6.609 -8.227,14.929 -8.227,24.961l0,2.25Z" style="fill:#fff;fill-rule:nonzero;"/><path d="M359.742,137.676c2.485,-5.906 6.141,-10.57 10.969,-13.992c4.828,-3.422 10.172,-5.133 16.031,-5.133c8.156,0 14.215,2.308 18.176,6.926c3.961,4.617 5.965,11.589 6.012,20.918l0,49.64l-3.797,0l0,-49.781c-0.047,-8.156 -1.711,-14.191 -4.992,-18.106c-3.282,-3.914 -8.485,-5.871 -15.61,-5.871c-6.562,0 -12.246,2.332 -17.051,6.996c-4.804,4.665 -8.05,10.676 -9.738,18.036l0,48.726l-3.797,0l0,-76.078l3.797,0l0,17.719Z" style="fill:#fff;fill-rule:nonzero;"/><path d="M485.742,196.035l0,-12.304c-2.25,4.218 -5.531,7.558 -9.844,10.019c-4.312,2.461 -9.773,3.691 -16.382,3.691c-8.297,0 -14.52,-2.425 -18.668,-7.277c-4.149,-4.851 -6.27,-11.918 -6.364,-21.199l0,-49.008l3.797,0l0,49.149c0.094,8.062 1.922,14.167 5.485,18.316c3.562,4.148 8.765,6.223 15.609,6.223c7.266,0 13.172,-1.711 17.719,-5.133c4.547,-3.422 7.429,-8.438 8.648,-15.047l0,-53.508l3.867,0l0,76.078l-3.867,0Z" style="fill:#fff;fill-rule:nonzero;"/><path d="M522.094,99.426l0,20.531l17.297,0l0,3.867l-17.297,0l0,54c0,5.391 0.879,9.375 2.636,11.953c1.758,2.579 4.7,3.868 8.825,3.868c2.062,0 4.57,-0.211 7.523,-0.633l0.633,3.586c-1.547,0.562 -4.195,0.843 -7.945,0.843c-5.532,0 -9.493,-1.535 -11.883,-4.605c-2.391,-3.07 -3.61,-7.91 -3.656,-14.52l0,-54.492l-14.063,0l0,-3.867l14.063,0l0,-20.531l3.867,0Z" style="fill:#fff;fill-rule:nonzero;"/><path d="M651.82,145.691l-52.453,0l0,50.344l-3.797,0l0,-102.375l63.422,0l0,3.797l-59.625,0l0,44.297l52.453,0l0,3.937Z" style="fill:#fff;fill-rule:nonzero;"/><path d="M680.719,196.035l-3.797,0l0,-76.078l3.797,0l0,76.078Zm-5.766,-99.844c0,-1.078 0.375,-2.003 1.125,-2.777c0.75,-0.773 1.664,-1.16 2.742,-1.16c1.078,0 2.004,0.387 2.778,1.16c0.773,0.774 1.16,1.699 1.16,2.777c0,1.079 -0.387,1.993 -1.16,2.743c-0.774,0.75 -1.7,1.125 -2.778,1.125c-1.078,0 -1.992,-0.375 -2.742,-1.125c-0.75,-0.75 -1.125,-1.664 -1.125,-2.743Z" style="fill:#fff;fill-rule:nonzero;"/><path d="M702.094,157.223c0,-12.141 2.554,-21.621 7.664,-28.442c5.109,-6.82 12.117,-10.23 21.023,-10.23c5.672,0 10.711,1.301 15.117,3.902c4.407,2.602 7.946,6.41 10.618,11.426l0,-13.922l3.867,0l0,74.742c0,10.032 -2.578,17.871 -7.735,23.52c-5.156,5.648 -12.164,8.472 -21.023,8.472c-5.109,0 -9.785,-1.101 -14.027,-3.304c-4.243,-2.203 -7.864,-5.367 -10.864,-9.492l2.672,-2.532c2.953,3.75 6.188,6.621 9.703,8.614c3.516,1.992 7.641,2.988 12.375,2.988c7.829,0 13.922,-2.379 18.282,-7.137c4.359,-4.758 6.609,-11.472 6.75,-20.144l0,-11.672c-2.625,4.312 -6.176,7.629 -10.653,9.949c-4.476,2.32 -9.55,3.48 -15.222,3.48c-8.813,0 -15.774,-3.492 -20.883,-10.476c-5.11,-6.984 -7.664,-16.57 -7.664,-28.758l0,-0.984Zm3.867,1.476c0,10.875 2.156,19.418 6.469,25.629c4.312,6.211 10.359,9.317 18.14,9.317c6.422,0 11.883,-1.489 16.383,-4.465c4.5,-2.977 7.688,-7.16 9.563,-12.551l0,-34.523c-4.125,-13.172 -12.727,-19.758 -25.805,-19.758c-7.828,0 -13.91,3.07 -18.246,9.211c-4.336,6.14 -6.504,15.187 -6.504,27.14Z" style="fill:#fff;fill-rule:nonzero;"/><path d="M788.438,137.676c2.484,-5.906 6.14,-10.57 10.968,-13.992c4.828,-3.422 10.172,-5.133 16.032,-5.133c8.156,0 14.214,2.308 18.175,6.926c3.961,4.617 5.965,11.589 6.012,20.918l0,49.64l-3.797,0l0,-49.781c-0.047,-8.156 -1.711,-14.191 -4.992,-18.106c-3.281,-3.914 -8.484,-5.871 -15.609,-5.871c-6.563,0 -12.247,2.332 -17.051,6.996c-4.805,4.665 -8.051,10.676 -9.738,18.036l0,48.726l-3.797,0l0,-108l3.797,0l0,49.641Z" style="fill:#fff;fill-rule:nonzero;"/><path d="M871.969,99.426l0,20.531l17.297,0l0,3.867l-17.297,0l0,54c0,5.391 0.879,9.375 2.636,11.953c1.758,2.579 4.7,3.868 8.825,3.868c2.062,0 4.57,-0.211 7.523,-0.633l0.633,3.586c-1.547,0.562 -4.195,0.843 -7.945,0.843c-5.532,0 -9.493,-1.535 -11.883,-4.605c-2.391,-3.07 -3.61,-7.91 -3.656,-14.52l0,-54.492l-14.063,0l0,-3.867l14.063,0l0,-20.531l3.867,0Z" style="fill:#fff;fill-rule:nonzero;"/><path d="M936.375,197.441c-6.141,0 -11.777,-1.652 -16.91,-4.957c-5.133,-3.304 -9.153,-7.839 -12.059,-13.605c-2.906,-5.766 -4.359,-12.164 -4.359,-19.195l0,-3.164c0,-7.032 1.406,-13.477 4.219,-19.336c2.812,-5.86 6.679,-10.43 11.601,-13.711c4.922,-3.282 10.289,-4.922 16.102,-4.922c8.484,0 15.422,3.023 20.812,9.07c5.391,6.047 8.086,13.992 8.086,23.836l0,4.008l-57.023,0l0,4.148c0,6.188 1.301,11.918 3.902,17.192c2.602,5.273 6.188,9.41 10.758,12.41c4.57,3 9.527,4.5 14.871,4.5c5.109,0 9.457,-0.856 13.043,-2.567c3.586,-1.71 6.762,-4.347 9.527,-7.91l2.672,1.899c-5.672,8.203 -14.086,12.304 -25.242,12.304Zm-1.406,-75.093c-7.407,0 -13.688,2.754 -18.844,8.261c-5.156,5.508 -8.18,12.528 -9.07,21.059l53.015,0l0,-0.914c0,-5.156 -1.09,-9.949 -3.269,-14.379c-2.18,-4.43 -5.18,-7.875 -9,-10.336c-3.821,-2.461 -8.098,-3.691 -12.832,-3.691Z" style="fill:#fff;fill-rule:nonzero;"/><path d="M1015.12,122.699l-4.922,-0.422c-6.469,0 -11.883,2.098 -16.242,6.293c-4.359,4.196 -7.219,10.067 -8.578,17.614l0,49.851l-3.797,0l0,-76.078l3.797,0l0,15.82c2.062,-5.296 5.156,-9.492 9.281,-12.586c4.125,-3.093 9.305,-4.64 15.539,-4.64c2.203,0 3.985,0.258 5.344,0.773l-0.422,3.375Z" style="fill:#fff;fill-rule:nonzero;"/></g></svg>