<?xml version="1.0" encoding="UTF-8" standalone="no"?><!DOCTYPE svg PUBLIC "-//W3C//DTD SVG 1.1//EN" "http://www.w3.org/Graphics/SVG/1.1/DTD/svg11.dtd"><svg width="100%" height="100%" viewBox="0 0 1200 550" version="1.1" xmlns="http://www.w3.org/2000/svg" xmlns:xlink="http://www.w3.org/1999/xlink" xml:space="preserve" style="fill-rule:evenodd;clip-rule:evenodd;stroke-linejoin:round;stroke-miterlimit:1.5;"><g id="Phone"><path d="M792.294,173.327c0,-7.709 -6.259,-13.968 -13.968,-13.968l-145.21,0c-7.709,0 -13.968,6.259 -13.968,13.968l0,341.668c0,7.709 6.259,13.968 13.968,13.968l145.21,0c7.709,0 13.968,-6.259 13.968,-13.968l0,-341.668Z" style="fill:#2e2e2e;"/><path d="M729.488,185.645c0,-0.506 -0.411,-0.916 -0.916,-0.916l-45.702,0c-0.505,0 -0.916,0.41 -0.916,0.916l0,1.832c0,0.505 0.411,0.916 0.916,0.916l45.702,0c0.505,0 0.916,-0.411 0.916,-0.916l0,-1.832Z" style="fill:#4b4b4b;"/><circle cx="705.721" cy="500.15" r="13.737" style="fill:#4b4b4b;"/><rect id="IMG_3236" x="628.416" y="200.801" width="154.61" height="274.456" style="fill:#ff162e;"/><path d="M702.601,260.461c-1.003,8.775 -3.932,34.55 -2.455,49.534c1.582,16.053 9.196,28.427 23.787,29.436c15.377,1.063 23.104,-18.712 25.617,-30.428c0.264,0.305 0.529,0.61 0.793,0.917c10.667,12.374 19.194,27.204 19.194,44.242c0,49.915 -43.086,59.818 -59.022,61.439c8.468,-1.799 22.326,-7.772 22.326,-26.615c0,-7.548 -3.778,-14.119 -8.504,-19.601c-0.117,-0.136 -0.234,-0.271 -0.351,-0.407c-1.113,5.191 -4.537,13.952 -11.35,13.481c-6.464,-0.446 -9.837,-5.929 -10.538,-13.041c-0.655,-6.639 0.643,-18.058 1.087,-21.946c-0.165,-0.165 -0.005,0.012 0,0l-0.105,0.089c-1.938,1.64 -29.496,25.358 -26.567,45.898c1.992,13.973 11.824,19.457 19.429,21.576c-17.059,-2.605 -48.129,-12.799 -53.545,-50.776c-6.819,-47.82 59.571,-103.272 60.202,-103.797c0.001,0 0.001,-0.001 0.002,-0.001l0.001,-0.002c0,-0.001 0.001,-0.001 0.002,-0.001l-0.003,0.003Z" style="fill:#fff;"/></g><g><path d="M406.852,125.715l-52.454,0l0,50.344l-3.796,0l0,-102.375l63.421,0l0,3.797l-59.625,0l0,44.297l52.454,0l0,3.937Z" style="fill:#fff;fill-rule:nonzero;"/><path d="M435.75,176.059l-3.797,0l0,-76.078l3.797,0l0,76.078Zm-5.766,-99.844c0,-1.078 0.375,-2.004 1.125,-2.777c0.75,-0.774 1.664,-1.16 2.743,-1.16c1.078,0 2.003,0.386 2.777,1.16c0.773,0.773 1.16,1.699 1.16,2.777c0,1.078 -0.387,1.992 -1.16,2.742c-0.774,0.75 -1.699,1.125 -2.777,1.125c-1.079,0 -1.993,-0.375 -2.743,-1.125c-0.75,-0.75 -1.125,-1.664 -1.125,-2.742Z" style="fill:#fff;fill-rule:nonzero;"/><path d="M494.25,102.723l-4.922,-0.422c-6.469,0 -11.883,2.098 -16.242,6.293c-4.359,4.195 -7.219,10.066 -8.578,17.613l0,49.852l-3.797,0l0,-76.078l3.797,0l0,15.82c2.062,-5.297 5.156,-9.492 9.281,-12.586c4.125,-3.094 9.305,-4.641 15.539,-4.641c2.203,0 3.985,0.258 5.344,0.774l-0.422,3.375Z" style="fill:#fff;fill-rule:nonzero;"/><path d="M534.891,177.465c-6.141,0 -11.778,-1.652 -16.911,-4.957c-5.132,-3.305 -9.152,-7.84 -12.058,-13.605c-2.906,-5.766 -4.36,-12.165 -4.36,-19.196l0,-3.164c0,-7.031 1.407,-13.476 4.219,-19.336c2.813,-5.859 6.68,-10.429 11.602,-13.711c4.922,-3.281 10.289,-4.922 16.101,-4.922c8.485,0 15.422,3.024 20.813,9.071c5.39,6.047 8.086,13.992 8.086,23.836l0,4.007l-57.024,0l0,4.149c0,6.187 1.301,11.918 3.903,17.191c2.601,5.274 6.187,9.41 10.758,12.41c4.57,3 9.527,4.5 14.871,4.5c5.109,0 9.457,-0.855 13.043,-2.566c3.586,-1.711 6.761,-4.348 9.527,-7.91l2.672,1.898c-5.672,8.203 -14.086,12.305 -25.242,12.305Zm-1.407,-75.094c-7.406,0 -13.687,2.754 -18.843,8.262c-5.157,5.508 -8.18,12.527 -9.071,21.059l53.016,0l0,-0.914c0,-5.157 -1.09,-9.95 -3.27,-14.379c-2.179,-4.43 -5.179,-7.875 -9,-10.336c-3.82,-2.461 -8.097,-3.692 -12.832,-3.692Z" style="fill:#fff;fill-rule:nonzero;"/><path d="M677.836,151.52c0,-4.36 -1.02,-8.051 -3.059,-11.074c-2.039,-3.024 -5.25,-5.696 -9.632,-8.016c-4.383,-2.32 -11.004,-4.699 -19.864,-7.137c-8.859,-2.437 -15.504,-4.898 -19.933,-7.383c-4.43,-2.484 -7.676,-5.367 -9.739,-8.648c-2.062,-3.281 -3.093,-7.266 -3.093,-11.953c0,-7.453 3.14,-13.488 9.421,-18.106c6.282,-4.617 14.461,-6.925 24.54,-6.925c6.562,0 12.457,1.277 17.683,3.832c5.227,2.554 9.27,6.14 12.129,10.757c2.859,4.618 4.289,9.832 4.289,15.645l-3.797,0c0,-7.641 -2.812,-13.957 -8.437,-18.949c-5.625,-4.992 -12.914,-7.489 -21.867,-7.489c-9,0 -16.278,2.004 -21.832,6.012c-5.555,4.008 -8.333,9.035 -8.333,15.082c0,6.141 2.415,11.086 7.243,14.836c4.828,3.75 12.797,7.067 23.906,9.949c11.109,2.883 19.242,6.223 24.398,10.02c6.563,4.828 9.844,11.297 9.844,19.406c0,5.156 -1.453,9.715 -4.359,13.676c-2.907,3.961 -7.032,7.019 -12.375,9.176c-5.344,2.156 -11.344,3.234 -18,3.234c-7.407,0 -14.063,-1.23 -19.969,-3.691c-5.906,-2.461 -10.348,-5.965 -13.324,-10.512c-2.977,-4.547 -4.465,-9.914 -4.465,-16.102l3.797,0c0,8.391 3.14,14.907 9.422,19.547c6.281,4.641 14.461,6.961 24.539,6.961c8.953,0 16.336,-2.051 22.148,-6.152c5.813,-4.102 8.719,-9.434 8.719,-15.996Z" style="fill:#fff;fill-rule:nonzero;"/><path d="M708.211,79.449l0,20.532l17.297,0l0,3.867l-17.297,0l0,54c0,5.39 0.879,9.375 2.637,11.953c1.757,2.578 4.699,3.867 8.824,3.867c2.062,0 4.57,-0.211 7.523,-0.633l0.633,3.586c-1.547,0.563 -4.195,0.844 -7.945,0.844c-5.531,0 -9.492,-1.535 -11.883,-4.605c-2.391,-3.071 -3.609,-7.911 -3.656,-14.52l0,-54.492l-14.063,0l0,-3.867l14.063,0l0,-20.532l3.867,0Z" style="fill:#fff;fill-rule:nonzero;"/><path d="M794.414,176.059c-0.937,-3.235 -1.406,-7.875 -1.406,-13.922c-3,4.875 -7.102,8.648 -12.305,11.32c-5.203,2.672 -11.086,4.008 -17.648,4.008c-7.032,0 -12.692,-1.91 -16.981,-5.73c-4.289,-3.821 -6.433,-8.801 -6.433,-14.942c0,-6.984 3.152,-12.574 9.457,-16.769c6.304,-4.196 14.683,-6.34 25.136,-6.434l18.774,0l0,-11.109c0,-6.375 -2.004,-11.321 -6.012,-14.836c-4.008,-3.516 -9.738,-5.274 -17.191,-5.274c-6.938,0 -12.727,1.782 -17.368,5.344c-4.64,3.563 -6.96,7.969 -6.96,13.219l-3.797,-0.141c0,-6.187 2.718,-11.437 8.156,-15.75c5.437,-4.312 12.094,-6.469 19.969,-6.469c8.203,0 14.718,2.051 19.547,6.153c4.828,4.101 7.312,9.879 7.453,17.332l0,36.351c0,8.344 0.656,14.016 1.968,17.016l0,0.633l-4.359,0Zm-31.359,-2.321c7.125,0 13.254,-1.593 18.386,-4.781c5.133,-3.187 8.989,-7.664 11.567,-13.429l0,-18.071l-17.578,0c-10.875,0 -19.196,2.156 -24.961,6.469c-4.688,3.516 -7.031,7.898 -7.031,13.148c0,4.641 1.851,8.579 5.554,11.813c3.703,3.234 8.391,4.851 14.063,4.851Z" style="fill:#fff;fill-rule:nonzero;"/><path d="M829.781,79.449l0,20.532l17.297,0l0,3.867l-17.297,0l0,54c0,5.39 0.879,9.375 2.637,11.953c1.758,2.578 4.699,3.867 8.824,3.867c2.063,0 4.571,-0.211 7.524,-0.633l0.632,3.586c-1.546,0.563 -4.195,0.844 -7.945,0.844c-5.531,0 -9.492,-1.535 -11.883,-4.605c-2.39,-3.071 -3.609,-7.911 -3.656,-14.52l0,-54.492l-14.062,0l0,-3.867l14.062,0l0,-20.532l3.867,0Z" style="fill:#fff;fill-rule:nonzero;"/></g><g id="Plan"><rect x="407.706" y="225.075" width="163.967" height="251.533" style="fill:#fff;"/><path d="M426.849,261.809l133.199,0" style="fill:none;stroke:#565656;stroke-width:3px;"/><path d="M426.849,309.606l133.199,0" style="fill:none;stroke:#565656;stroke-width:3px;"/><path d="M418.33,276.478l141.718,0" style="fill:none;stroke:#565656;stroke-width:3px;"/><path d="M418.33,324.275l141.718,0" style="fill:none;stroke:#565656;stroke-width:3px;"/><path d="M418.118,269.005l141.718,0" style="fill:none;stroke:#565656;stroke-width:3px;"/><path d="M418.118,316.802l141.718,0" style="fill:none;stroke:#565656;stroke-width:3px;"/><path d="M418.118,291.52l141.718,0" style="fill:none;stroke:#565656;stroke-width:3px;"/><path d="M418.118,339.317l141.718,0" style="fill:none;stroke:#565656;stroke-width:3px;"/><path d="M418.118,284.149l141.718,0" style="fill:none;stroke:#565656;stroke-width:3px;"/><path d="M418.118,331.946l141.718,0" style="fill:none;stroke:#565656;stroke-width:3px;"/><text x="417.067px" y="247.827px" style="font-family:'Roboto-Regular', 'Roboto';font-size:15.216px;fill:#565656;">12 Main Str<tspan x="494.344px " y="247.827px ">e</tspan>et</text><rect x="430.916" y="367.623" width="117.548" height="90.085" style="fill:#8fe365;"/><rect x="456.76" y="393.659" width="55.773" height="21.946" style="fill:#6e706d;"/><rect x="478.464" y="393.659" width="55.773" height="16.748" style="fill:#6e706d;"/><path d="M535.593,423.858l0,-34.012l-12.974,0l0,34.012l12.974,0Z" style="fill:#6e706d;"/><path d="M461.955,449.225l0,-55.566l-18.169,0l0,55.566l18.169,0Z" style="fill:#6e706d;"/><path d="M478.15,411.212l0,-35.106l-21.39,0l0,35.106l21.39,0Z" style="fill:#6e706d;"/><path d="M512.533,445.297l0,-35.106l-21.39,0l0,35.106l21.39,0Z" style="fill:#6e706d;"/><circle cx="440.159" cy="395.345" r="1.686" style="fill:#ff0600;"/><circle cx="520.022" cy="397.876" r="1.686" style="fill:#0005ff;"/><circle cx="452.104" cy="426.419" r="1.686" style="fill:#0005ff;"/><circle cx="532.927" cy="427.744" r="1.686" style="fill:#ff0600;"/><path d="M466.532,385.402l-2.288,-2.288l-2.289,2.288l2.289,2.288l2.288,-2.288Z"/><path d="M509.096,438.641l-2.289,-2.289l-2.288,2.289l2.288,2.288l2.289,-2.288Z"/><path d="M459.85,397.17l2.105,4.21l-4.21,0l2.105,-4.21Z" style="fill:#fe0;"/><rect x="504.141" y="421.442" width="3.7" height="4.976" style="fill:#ff0600;"/><rect x="476.249" y="407.737" width="3.7" height="4.976" style="fill:#ff0600;"/></g></svg>