<?xml version="1.0" encoding="UTF-8" standalone="no"?><!DOCTYPE svg PUBLIC "-//W3C//DTD SVG 1.1//EN" "http://www.w3.org/Graphics/SVG/1.1/DTD/svg11.dtd"><svg width="100%" height="100%" viewBox="0 0 1200 550" version="1.1" xmlns="http://www.w3.org/2000/svg" xmlns:xlink="http://www.w3.org/1999/xlink" xml:space="preserve" style="fill-rule:evenodd;clip-rule:evenodd;stroke-linecap:square;stroke-linejoin:round;stroke-miterlimit:1.5;"><rect x="239.433" y="297.203" width="651.357" height="9" style="fill:#9d1e1e;"/><g><path d="M890.79,242.251l0,254.137l-9,0l0,-390.994l95.674,0l0,9l-86.674,0l0,118.857l90.15,0l0,9l-90.15,0Z" style="fill:#9d1e1e;"/><rect x="881.79" y="489.012" width="84.601" height="9" style="fill:#9d1e1e;"/><path d="M886.29,363.51l100.726,0" style="fill:none;stroke:#9d1e1e;stroke-width:9px;"/></g><g id="Men"><g id="Man"><circle cx="987.016" cy="233.038" r="46.665" style="fill:#aeaeae;"/><g id="Chest"><path d="M1015.16,250.614c0,-4.975 -4.039,-9.014 -9.014,-9.014l-38.258,0c-4.975,0 -9.014,4.039 -9.014,9.014l0,18.028c0,4.975 4.039,9.014 9.014,9.014l38.258,0c4.975,0 9.014,-4.039 9.014,-9.014l0,-18.028Z" style="fill:#00d216;"/><clipPath id="_clip1"><path d="M1015.16,250.614c0,-4.975 -4.039,-9.014 -9.014,-9.014l-38.258,0c-4.975,0 -9.014,4.039 -9.014,9.014l0,18.028c0,4.975 4.039,9.014 9.014,9.014l38.258,0c4.975,0 9.014,-4.039 9.014,-9.014l0,-18.028Z"/></clipPath><g clip-path="url(#_clip1)"><rect x="958.873" y="241.6" width="56.286" height="5.394" style="fill:#00a111;"/></g></g><g id="Neck"><path d="M997.608,240.535c0,-0.978 -0.793,-1.772 -1.771,-1.772l-17.642,0c-0.977,0 -1.771,0.794 -1.771,1.772l0,3.544c0,0.978 0.794,1.772 1.771,1.772l17.642,0c0.978,0 1.771,-0.794 1.771,-1.772l0,-3.544Z" style="fill:#ddb37b;"/><clipPath id="_clip2"><path d="M997.608,240.535c0,-0.978 -0.793,-1.772 -1.771,-1.772l-17.642,0c-0.977,0 -1.771,0.794 -1.771,1.772l0,3.544c0,0.978 0.794,1.772 1.771,1.772l17.642,0c0.978,0 1.771,-0.794 1.771,-1.772l0,-3.544Z"/></clipPath><g clip-path="url(#_clip2)"><rect x="992.751" y="236.895" width="4.858" height="13.067" style="fill:#d0a770;"/></g></g><circle cx="967.886" cy="218.727" r="4.635" style="fill:#ddb37b;"/><circle cx="1007.21" cy="218.727" r="4.635" style="fill:#ddb37b;"/><ellipse cx="987.016" cy="219.406" rx="19.663" ry="24.665" style="fill:#ffd59c;"/><path d="M984.965,194.874c0.674,-0.088 1.358,-0.133 2.051,-0.133c10.852,0 19.663,11.052 19.663,24.665c0,13.612 -8.811,24.664 -19.663,24.664c-0.693,0 -1.377,-0.045 -2.051,-0.133c9.89,-1.288 17.612,-11.787 17.612,-24.531c0,-12.744 -7.722,-23.244 -17.612,-24.532Z" style="fill:#f4c88d;"/><circle cx="994.621" cy="217.577" r="2.872"/><circle cx="979.229" cy="217.577" r="2.872"/><path id="_-Curve-" d="M991.749,212.723l9.675,0" style="stroke:#612d00;stroke-width:1px;stroke-linecap:round;"/><path id="_-Curve-1" d="M972.097,213.54l9.28,-2.735" style="stroke:#612d00;stroke-width:1px;stroke-linecap:round;"/><path d="M984.965,229.836l3.224,0" style="fill:none;stroke:#e2bb87;stroke-width:1.5px;stroke-linecap:round;"/><path d="M979.081,225.462c0,0 1.969,2.028 7.988,2.028c6.019,0 7.882,-2.056 7.882,-2.056" style="fill:none;stroke:#d2a871;stroke-width:0.9px;stroke-linecap:round;"/><circle id="Frame" cx="987.016" cy="233.038" r="46.665" style="fill:none;stroke:#fff;stroke-width:7.5px;stroke-linecap:round;"/></g><g id="Man1"><circle cx="987.016" cy="358.46" r="46.665" style="fill:#aeaeae;"/><g id="Chest1"><path d="M1015.16,376.037c0,-4.975 -4.039,-9.014 -9.014,-9.014l-38.258,0c-4.975,0 -9.014,4.039 -9.014,9.014l0,18.028c0,4.974 4.039,9.013 9.014,9.013l38.258,0c4.975,0 9.014,-4.039 9.014,-9.013l0,-18.028Z" style="fill:#0076d2;"/><clipPath id="_clip3"><path d="M1015.16,376.037c0,-4.975 -4.039,-9.014 -9.014,-9.014l-38.258,0c-4.975,0 -9.014,4.039 -9.014,9.014l0,18.028c0,4.974 4.039,9.013 9.014,9.013l38.258,0c4.975,0 9.014,-4.039 9.014,-9.013l0,-18.028Z"/></clipPath><g clip-path="url(#_clip3)"><rect x="958.873" y="367.023" width="56.286" height="5.394" style="fill:#0055a1;"/></g></g><g id="Neck1"><path d="M997.608,365.958c0,-0.978 -0.793,-1.772 -1.771,-1.772l-17.642,0c-0.977,0 -1.771,0.794 -1.771,1.772l0,3.544c0,0.978 0.794,1.772 1.771,1.772l17.642,0c0.978,0 1.771,-0.794 1.771,-1.772l0,-3.544Z" style="fill:#ddb37b;"/><clipPath id="_clip4"><path d="M997.608,365.958c0,-0.978 -0.793,-1.772 -1.771,-1.772l-17.642,0c-0.977,0 -1.771,0.794 -1.771,1.772l0,3.544c0,0.978 0.794,1.772 1.771,1.772l17.642,0c0.978,0 1.771,-0.794 1.771,-1.772l0,-3.544Z"/></clipPath><g clip-path="url(#_clip4)"><rect x="992.751" y="362.317" width="4.858" height="13.067" style="fill:#d0a770;"/></g></g><circle cx="967.886" cy="344.15" r="4.635" style="fill:#ddb37b;"/><circle cx="1007.21" cy="344.15" r="4.635" style="fill:#ddb37b;"/><ellipse cx="987.016" cy="344.828" rx="19.663" ry="24.665" style="fill:#ffd59c;"/><path d="M984.965,320.297c0.674,-0.088 1.358,-0.133 2.051,-0.133c10.852,0 19.663,11.052 19.663,24.664c0,13.613 -8.811,24.665 -19.663,24.665c-0.693,0 -1.377,-0.045 -2.051,-0.133c9.89,-1.288 17.612,-11.788 17.612,-24.532c0,-12.744 -7.722,-23.243 -17.612,-24.531Z" style="fill:#f4c88d;"/><circle cx="994.621" cy="343" r="2.872"/><circle cx="979.229" cy="343" r="2.872"/><path id="_-Curve-2" d="M991.749,338.146l9.675,0" style="stroke:#612d00;stroke-width:1px;stroke-linecap:round;"/><path id="_-Curve-3" d="M972.097,338.963l9.28,-2.735" style="stroke:#612d00;stroke-width:1px;stroke-linecap:round;"/><path d="M984.965,355.259l3.224,0" style="fill:none;stroke:#e2bb87;stroke-width:1.5px;stroke-linecap:round;"/><path d="M979.081,350.885c0,0 1.969,2.028 7.988,2.028c6.019,0 7.882,-2.057 7.882,-2.057" style="fill:none;stroke:#d2a871;stroke-width:0.9px;stroke-linecap:round;"/><circle id="Frame1" cx="987.016" cy="358.46" r="46.665" style="fill:none;stroke:#fff;stroke-width:7.5px;stroke-linecap:round;"/></g><g id="Man2"><circle cx="987.016" cy="484.29" r="46.665" style="fill:#aeaeae;"/><g id="Chest2"><path d="M1015.16,501.867c0,-4.975 -4.039,-9.014 -9.014,-9.014l-38.258,0c-4.975,0 -9.014,4.039 -9.014,9.014l0,18.027c0,4.975 4.039,9.014 9.014,9.014l38.258,0c4.975,0 9.014,-4.039 9.014,-9.014l0,-18.027Z" style="fill:#d20053;"/><clipPath id="_clip5"><path d="M1015.16,501.867c0,-4.975 -4.039,-9.014 -9.014,-9.014l-38.258,0c-4.975,0 -9.014,4.039 -9.014,9.014l0,18.027c0,4.975 4.039,9.014 9.014,9.014l38.258,0c4.975,0 9.014,-4.039 9.014,-9.014l0,-18.027Z"/></clipPath><g clip-path="url(#_clip5)"><rect x="958.873" y="492.853" width="56.286" height="5.394" style="fill:#a10036;"/></g></g><g id="Neck2"><path d="M997.608,491.788c0,-0.978 -0.793,-1.772 -1.771,-1.772l-17.642,0c-0.977,0 -1.771,0.794 -1.771,1.772l0,3.543c0,0.978 0.794,1.772 1.771,1.772l17.642,0c0.978,0 1.771,-0.794 1.771,-1.772l0,-3.543Z" style="fill:#ddb37b;"/><clipPath id="_clip6"><path d="M997.608,491.788c0,-0.978 -0.793,-1.772 -1.771,-1.772l-17.642,0c-0.977,0 -1.771,0.794 -1.771,1.772l0,3.543c0,0.978 0.794,1.772 1.771,1.772l17.642,0c0.978,0 1.771,-0.794 1.771,-1.772l0,-3.543Z"/></clipPath><g clip-path="url(#_clip6)"><rect x="992.751" y="488.147" width="4.858" height="13.067" style="fill:#d0a770;"/></g></g><circle cx="967.886" cy="469.979" r="4.635" style="fill:#ddb37b;"/><circle cx="1007.21" cy="469.979" r="4.635" style="fill:#ddb37b;"/><ellipse cx="987.016" cy="470.658" rx="19.663" ry="24.665" style="fill:#ffd59c;"/><path d="M984.965,446.126c0.674,-0.088 1.358,-0.133 2.051,-0.133c10.852,0 19.663,11.052 19.663,24.665c0,13.613 -8.811,24.664 -19.663,24.664c-0.693,0 -1.377,-0.045 -2.051,-0.132c9.89,-1.289 17.612,-11.788 17.612,-24.532c0,-12.744 -7.722,-23.244 -17.612,-24.532Z" style="fill:#f4c88d;"/><circle cx="994.621" cy="468.83" r="2.872"/><circle cx="979.229" cy="468.83" r="2.872"/><path id="_-Curve-4" d="M991.749,463.975l9.675,0" style="stroke:#612d00;stroke-width:1px;stroke-linecap:round;"/><path id="_-Curve-5" d="M972.097,464.793l9.28,-2.735" style="stroke:#612d00;stroke-width:1px;stroke-linecap:round;"/><path d="M984.965,481.089l3.224,0" style="fill:none;stroke:#e2bb87;stroke-width:1.5px;stroke-linecap:round;"/><path d="M979.081,476.715c0,0 1.969,2.027 7.988,2.027c6.019,0 7.882,-2.056 7.882,-2.056" style="fill:none;stroke:#d2a871;stroke-width:0.9px;stroke-linecap:round;"/><circle id="Frame2" cx="987.016" cy="484.29" r="46.665" style="fill:none;stroke:#fff;stroke-width:7.5px;stroke-linecap:round;"/></g><g id="Man3"><circle cx="987.016" cy="110.867" r="46.665" style="fill:#aeaeae;"/><g id="Chest3"><path d="M1015.16,128.443c0,-4.974 -4.039,-9.013 -9.014,-9.013l-38.258,0c-4.975,0 -9.014,4.039 -9.014,9.013l0,18.028c0,4.975 4.039,9.014 9.014,9.014l38.258,0c4.975,0 9.014,-4.039 9.014,-9.014l0,-18.028Z" style="fill:#9100d2;"/><clipPath id="_clip7"><path d="M1015.16,128.443c0,-4.974 -4.039,-9.013 -9.014,-9.013l-38.258,0c-4.975,0 -9.014,4.039 -9.014,9.013l0,18.028c0,4.975 4.039,9.014 9.014,9.014l38.258,0c4.975,0 9.014,-4.039 9.014,-9.014l0,-18.028Z"/></clipPath><g clip-path="url(#_clip7)"><rect x="958.873" y="119.43" width="56.286" height="5.394" style="fill:#7400a1;"/></g></g><g id="Neck3"><path d="M997.608,118.364c0,-0.978 -0.793,-1.772 -1.771,-1.772l-17.642,0c-0.977,0 -1.771,0.794 -1.771,1.772l0,3.544c0,0.978 0.794,1.772 1.771,1.772l17.642,0c0.978,0 1.771,-0.794 1.771,-1.772l0,-3.544Z" style="fill:#ddb37b;"/><clipPath id="_clip8"><path d="M997.608,118.364c0,-0.978 -0.793,-1.772 -1.771,-1.772l-17.642,0c-0.977,0 -1.771,0.794 -1.771,1.772l0,3.544c0,0.978 0.794,1.772 1.771,1.772l17.642,0c0.978,0 1.771,-0.794 1.771,-1.772l0,-3.544Z"/></clipPath><g clip-path="url(#_clip8)"><rect x="992.751" y="114.724" width="4.858" height="13.067" style="fill:#d0a770;"/></g></g><circle cx="967.886" cy="96.556" r="4.635" style="fill:#ddb37b;"/><circle cx="1007.21" cy="96.556" r="4.635" style="fill:#ddb37b;"/><ellipse cx="987.016" cy="97.235" rx="19.663" ry="24.665" style="fill:#ffd59c;"/><path d="M984.965,72.703c0.674,-0.088 1.358,-0.133 2.051,-0.133c10.852,0 19.663,11.052 19.663,24.665c0,13.612 -8.811,24.664 -19.663,24.664c-0.693,0 -1.377,-0.045 -2.051,-0.133c9.89,-1.288 17.612,-11.787 17.612,-24.531c0,-12.744 -7.722,-23.244 -17.612,-24.532Z" style="fill:#f4c88d;"/><circle cx="994.621" cy="95.407" r="2.872"/><circle cx="979.229" cy="95.407" r="2.872"/><path id="_-Curve-6" d="M991.749,90.552l9.675,0" style="stroke:#612d00;stroke-width:1px;stroke-linecap:round;"/><path id="_-Curve-7" d="M972.097,91.369l9.28,-2.735" style="stroke:#612d00;stroke-width:1px;stroke-linecap:round;"/><path d="M984.965,107.665l3.224,0" style="fill:none;stroke:#e2bb87;stroke-width:1.5px;stroke-linecap:round;"/><path d="M979.081,103.291c0,0 1.969,2.028 7.988,2.028c6.019,0 7.882,-2.056 7.882,-2.056" style="fill:none;stroke:#d2a871;stroke-width:0.9px;stroke-linecap:round;"/><circle id="Frame3" cx="987.016" cy="110.867" r="46.665" style="fill:none;stroke:#fff;stroke-width:7.5px;stroke-linecap:round;"/></g></g><g id="ipad"><path d="M829.581,172.989c0,-13.666 -11.096,-24.762 -24.763,-24.762l-409.636,0c-13.667,0 -24.763,11.096 -24.763,24.762l0,257.428c0,13.667 11.096,24.763 24.763,24.763l409.636,0c13.667,0 24.763,-11.096 24.763,-24.763l0,-257.428Z" style="fill:#2e2e2e;"/><circle cx="396.168" cy="301.703" r="11.408" style="fill:#4b4b4b;"/><clipPath id="_clip9"><rect id="IMG_3236" x="415.777" y="161.419" width="368.446" height="280.568"/></clipPath><g clip-path="url(#_clip9)"><rect x="415.777" y="161.419" width="368.446" height="280.568" style="fill:#d73131;"/></g></g><g id="Pencil"><path d="M688.541,211.135l-29.91,-22.301l-15.418,20.679l29.91,22.3l15.418,-20.678Z" style="fill:#f6a0a4;"/><path d="M520.27,405.611l15.222,-51.623l29.91,22.3l-45.132,29.323Z" style="fill:#e4b26b;"/><clipPath id="_clip10"><path d="M520.27,405.611l15.222,-51.623l29.91,22.3l-45.132,29.323Z"/></clipPath><g clip-path="url(#_clip10)"><path d="M540.887,393.943l-15.903,-11.857l-13.525,18.14l15.903,11.857l13.525,-18.14Z" style="fill:#001126;"/></g><path d="M555.856,369.171l-25.164,17.171l9.012,6.719l25.698,-16.773l-9.546,-7.117Z" style="fill-opacity:0.25;"/><path d="M673.123,231.813l-29.91,-22.3l-17.462,23.419l29.91,22.301l17.462,-23.42Z" style="fill:#cbcbcb;"/><path d="M670.241,235.678l-2.689,3.608l-29.91,-22.301l2.689,-3.608l29.91,22.301Z" style="fill:#afafaf;"/><path d="M664.945,242.781l-2.689,3.608l-29.91,-22.301l2.689,-3.608l29.91,22.301Z" style="fill:#afafaf;"/><path d="M660.532,248.701l-2.69,3.607l-29.91,-22.301l2.69,-3.607l29.91,22.301Z" style="fill:#afafaf;"/><path d="M655.661,255.233l-29.91,-22.301l-90.259,121.056l29.91,22.3l90.259,-121.055Z" style="fill:#ff9500;"/><path d="M540.574,357.777l90.26,-121.056" style="fill:#ef8c00;"/><path d="M632.838,238.216l-90.259,121.055l-4.009,-2.988l90.259,-121.056l4.009,2.989Z" style="fill:#de8200;"/><path d="M548.957,364.027l90.259,-121.056" style="fill:#ef8c00;"/><path d="M641.22,244.465l-90.259,121.056l-4.008,-2.989l90.259,-121.055l4.008,2.988Z" style="fill:#de8200;"/><path d="M688.541,211.135l-9.547,-7.118l-123.138,165.154l9.546,7.117l123.139,-165.153Z" style="fill-opacity:0.25;"/></g><g><path d="M298.947,172.202l-3.797,0l0,-76.078l3.797,0l0,76.078Zm-5.766,-99.844c0,-1.078 0.375,-2.004 1.125,-2.777c0.75,-0.774 1.664,-1.161 2.742,-1.161c1.078,0 2.004,0.387 2.778,1.161c0.773,0.773 1.16,1.699 1.16,2.777c0,1.078 -0.387,1.992 -1.16,2.742c-0.774,0.75 -1.7,1.125 -2.778,1.125c-1.078,0 -1.992,-0.375 -2.742,-1.125c-0.75,-0.75 -1.125,-1.664 -1.125,-2.742Z" style="fill:#fff;fill-rule:nonzero;"/><path d="M394.009,73.624l-37.265,0l0,98.578l-3.797,0l0,-98.578l-37.266,0l0,-3.797l78.328,0l0,3.797Z" style="fill:#fff;fill-rule:nonzero;"/><path d="M430.361,173.608c-6.141,0 -11.778,-1.652 -16.91,-4.957c-5.133,-3.305 -9.153,-7.84 -12.059,-13.606c-2.906,-5.765 -4.359,-12.164 -4.359,-19.195l0,-3.164c0,-7.031 1.406,-13.476 4.218,-19.336c2.813,-5.859 6.68,-10.43 11.602,-13.711c4.922,-3.281 10.289,-4.922 16.102,-4.922c8.484,0 15.421,3.024 20.812,9.071c5.391,6.047 8.086,13.992 8.086,23.836l0,4.007l-57.023,0l0,4.149c0,6.187 1.3,11.918 3.902,17.191c2.601,5.274 6.187,9.41 10.758,12.41c4.57,3 9.527,4.5 14.871,4.5c5.109,0 9.457,-0.855 13.043,-2.566c3.586,-1.711 6.761,-4.348 9.527,-7.91l2.672,1.898c-5.672,8.203 -14.086,12.305 -25.242,12.305Zm-1.406,-75.094c-7.407,0 -13.688,2.754 -18.844,8.262c-5.156,5.508 -8.18,12.527 -9.071,21.059l53.016,0l0,-0.915c0,-5.156 -1.09,-9.949 -3.269,-14.378c-2.18,-4.43 -5.18,-7.875 -9,-10.336c-3.821,-2.461 -8.098,-3.692 -12.832,-3.692Z" style="fill:#fff;fill-rule:nonzero;"/><path d="M524.72,172.202c-0.937,-3.235 -1.406,-7.875 -1.406,-13.922c-3,4.875 -7.102,8.648 -12.305,11.32c-5.203,2.672 -11.086,4.008 -17.648,4.008c-7.031,0 -12.692,-1.91 -16.981,-5.73c-4.289,-3.821 -6.433,-8.801 -6.433,-14.942c0,-6.984 3.152,-12.574 9.457,-16.769c6.304,-4.196 14.683,-6.34 25.136,-6.434l18.774,0l0,-11.109c0,-6.375 -2.004,-11.321 -6.012,-14.836c-4.008,-3.516 -9.738,-5.274 -17.191,-5.274c-6.938,0 -12.727,1.781 -17.367,5.344c-4.641,3.562 -6.961,7.969 -6.961,13.219l-3.797,-0.141c0,-6.187 2.719,-11.437 8.156,-15.75c5.438,-4.312 12.094,-6.469 19.969,-6.469c8.203,0 14.719,2.051 19.547,6.153c4.828,4.101 7.312,9.879 7.453,17.332l0,36.351c0,8.344 0.656,14.016 1.969,17.016l0,0.633l-4.36,0Zm-31.359,-2.321c7.125,0 13.254,-1.593 18.386,-4.781c5.133,-3.187 8.989,-7.664 11.567,-13.43l0,-18.07l-17.578,0c-10.875,0 -19.196,2.156 -24.961,6.469c-4.688,3.516 -7.031,7.898 -7.031,13.148c0,4.641 1.851,8.578 5.554,11.813c3.703,3.234 8.391,4.851 14.063,4.851Z" style="fill:#fff;fill-rule:nonzero;"/><path d="M577.384,169.811c6.891,0 12.574,-1.828 17.051,-5.484c4.477,-3.657 6.926,-8.719 7.348,-15.188l3.797,0c-0.375,7.36 -3.211,13.278 -8.508,17.754c-5.297,4.477 -11.86,6.715 -19.688,6.715c-9.515,0 -17.074,-3.445 -22.676,-10.336c-5.601,-6.891 -8.402,-16.242 -8.402,-28.055l0,-2.531c0,-11.531 2.801,-20.742 8.402,-27.633c5.602,-6.89 13.114,-10.336 22.536,-10.336c8.062,0 14.718,2.414 19.968,7.243c5.25,4.828 8.039,11.25 8.368,19.265l-3.797,0c-0.328,-6.844 -2.731,-12.34 -7.207,-16.488c-4.477,-4.149 -10.254,-6.223 -17.332,-6.223c-8.485,0 -15.129,3.059 -19.934,9.176c-4.805,6.117 -7.207,14.613 -7.207,25.488l0,2.461c0,10.641 2.426,18.996 7.277,25.067c4.852,6.07 11.52,9.105 20.004,9.105Z" style="fill:#fff;fill-rule:nonzero;"/><path d="M628.431,113.842c2.484,-5.906 6.141,-10.57 10.969,-13.992c4.828,-3.422 10.172,-5.133 16.031,-5.133c8.156,0 14.215,2.309 18.176,6.926c3.961,4.617 5.965,11.59 6.012,20.918l0,49.641l-3.797,0l0,-49.782c-0.047,-8.156 -1.711,-14.191 -4.992,-18.105c-3.282,-3.914 -8.485,-5.871 -15.61,-5.871c-6.562,0 -12.246,2.332 -17.051,6.996c-4.804,4.664 -8.05,10.676 -9.738,18.035l0,48.727l-3.797,0l0,-108l3.797,0l0,49.64Z" style="fill:#fff;fill-rule:nonzero;"/><path d="M734.181,129.874l35.859,-60.047l4.641,0l-38.601,63.492l0,38.883l-3.797,0l0,-38.883l-38.602,-63.492l5.063,0l35.437,60.047Z" style="fill:#fff;fill-rule:nonzero;"/><path d="M779.111,132.686c0,-7.266 1.394,-13.793 4.183,-19.582c2.789,-5.789 6.727,-10.301 11.813,-13.535c5.086,-3.234 10.84,-4.852 17.262,-4.852c6.375,0 12.093,1.571 17.156,4.711c5.062,3.141 9.012,7.594 11.847,13.36c2.836,5.765 4.278,12.257 4.325,19.476l0,3.375c0,7.313 -1.383,13.852 -4.149,19.617c-2.765,5.766 -6.691,10.266 -11.777,13.5c-5.086,3.235 -10.84,4.852 -17.262,4.852c-6.422,0 -12.176,-1.594 -17.262,-4.781c-5.085,-3.188 -9.035,-7.653 -11.847,-13.395c-2.813,-5.742 -4.242,-12.199 -4.289,-19.371l0,-3.375Zm3.797,2.953c0,6.328 1.254,12.129 3.761,17.403c2.508,5.273 6,9.386 10.477,12.339c4.476,2.954 9.598,4.43 15.363,4.43c8.672,0 15.738,-3.258 21.199,-9.773c5.461,-6.516 8.192,-14.907 8.192,-25.172l0,-2.18c0,-6.234 -1.266,-12 -3.797,-17.297c-2.531,-5.297 -6.035,-9.433 -10.512,-12.41c-4.476,-2.976 -9.551,-4.465 -15.222,-4.465c-8.672,0 -15.75,3.305 -21.235,9.914c-5.484,6.61 -8.226,14.93 -8.226,24.961l0,2.25Z" style="fill:#fff;fill-rule:nonzero;"/><path d="M915.095,172.202l0,-12.305c-2.25,4.219 -5.531,7.559 -9.844,10.02c-4.312,2.461 -9.773,3.691 -16.382,3.691c-8.297,0 -14.52,-2.426 -18.668,-7.277c-4.149,-4.852 -6.27,-11.918 -6.364,-21.2l0,-49.007l3.797,0l0,49.148c0.094,8.063 1.922,14.168 5.485,18.316c3.562,4.149 8.765,6.223 15.609,6.223c7.266,0 13.172,-1.711 17.719,-5.133c4.547,-3.422 7.429,-8.437 8.648,-15.047l0,-53.507l3.867,0l0,76.078l-3.867,0Z" style="fill:#fff;fill-rule:nonzero;"/></g><g id="File"><rect x="119.396" y="207.947" width="130.762" height="193.058" style="fill:#fff;"/><path d="M146.297,242.564l88.799,0" style="fill:none;"/><clipPath id="_clip11"><path d="M146.297,242.564l88.799,0"/></clipPath><g clip-path="url(#_clip11)"><rect x="120.908" y="210.773" width="126.232" height="185.857" style="fill:#fff;"/></g><rect x="144.797" y="241.064" width="91.799" height="3" style="fill:#3f3f3f;"/><rect x="144.797" y="283.902" width="91.799" height="3" style="fill:#3f3f3f;"/><rect x="144.797" y="326.187" width="91.799" height="3" style="fill:#3f3f3f;"/><rect x="144.797" y="366.733" width="91.799" height="3" style="fill:#3f3f3f;"/><rect x="131.132" y="252.67" width="105.465" height="3" style="fill:#3f3f3f;"/><rect x="131.132" y="252.67" width="105.465" height="3" style="fill:#3f3f3f;"/><rect x="131.132" y="295.508" width="105.465" height="3" style="fill:#3f3f3f;"/><rect x="131.132" y="295.508" width="105.465" height="3" style="fill:#3f3f3f;"/><rect x="131.132" y="337.793" width="105.465" height="3" style="fill:#3f3f3f;"/><rect x="131.132" y="378.338" width="105.465" height="3" style="fill:#3f3f3f;"/><rect x="131.132" y="264.873" width="105.465" height="3" style="fill:#3f3f3f;"/><rect x="131.132" y="307.711" width="105.465" height="3" style="fill:#3f3f3f;"/><rect x="131.132" y="307.711" width="105.465" height="3" style="fill:#3f3f3f;"/><rect x="131.132" y="349.996" width="105.465" height="3" style="fill:#3f3f3f;"/><rect x="131.132" y="246.988" width="105.465" height="3" style="fill:#3f3f3f;"/><rect x="131.132" y="246.988" width="105.465" height="3" style="fill:#3f3f3f;"/><rect x="131.132" y="289.825" width="105.465" height="3" style="fill:#3f3f3f;"/><rect x="131.132" y="289.825" width="105.465" height="3" style="fill:#3f3f3f;"/><rect x="131.132" y="332.111" width="105.465" height="3" style="fill:#3f3f3f;"/><rect x="131.132" y="372.656" width="105.465" height="3" style="fill:#3f3f3f;"/><rect x="131.132" y="258.594" width="105.465" height="3" style="fill:#3f3f3f;"/><rect x="131.132" y="258.594" width="105.465" height="3" style="fill:#3f3f3f;"/><rect x="131.132" y="301.431" width="105.465" height="3" style="fill:#3f3f3f;"/><rect x="131.132" y="301.431" width="105.465" height="3" style="fill:#3f3f3f;"/><rect x="131.132" y="343.717" width="105.465" height="3" style="fill:#3f3f3f;"/><rect x="131.132" y="270.797" width="105.465" height="3" style="fill:#3f3f3f;"/><rect x="131.132" y="313.634" width="105.465" height="3" style="fill:#3f3f3f;"/><rect x="131.132" y="313.634" width="105.465" height="3" style="fill:#3f3f3f;"/><rect x="131.132" y="355.92" width="105.465" height="3" style="fill:#3f3f3f;"/><text x="131.186px" y="232.359px" style="font-family:'Roboto-Medium', 'Roboto';font-weight:500;font-size:20px;fill:#3f3f3f;">File</text></g></svg>