<?xml version="1.0" encoding="UTF-8" standalone="no"?>
<!DOCTYPE svg PUBLIC "-//W3C//DTD SVG 1.1//EN" "http://www.w3.org/Graphics/SVG/1.1/DTD/svg11.dtd">
<svg width="100%" height="100%" viewBox="0 0 1200 550" version="1.1" xmlns="http://www.w3.org/2000/svg" xmlns:xlink="http://www.w3.org/1999/xlink" xml:space="preserve" xmlns:serif="http://www.serif.com/" style="fill-rule:evenodd;clip-rule:evenodd;stroke-linejoin:round;stroke-miterlimit:1.41421;">
    <g transform="matrix(1,0,0,1,37.3133,-1.8119)">
        <path d="M392.348,130.174L356.861,130.174L356.861,173.953L353.066,173.953L353.066,71.637L385.672,71.637C395.932,71.637 404.095,74.284 410.162,79.578C416.229,84.872 419.262,92.063 419.262,101.151C419.262,108.132 417.095,114.234 412.762,119.457C408.429,124.681 402.912,127.925 396.213,129.19L423.549,172.969L423.549,173.953L419.543,173.953L392.348,130.174ZM356.861,126.379L389.116,126.379C396.986,126.379 403.346,123.99 408.194,119.211C413.043,114.433 415.468,108.413 415.468,101.151C415.468,93.187 412.785,86.91 407.421,82.319C402.057,77.728 394.714,75.432 385.391,75.432L356.861,75.432L356.861,126.379Z" style="fill:white;fill-rule:nonzero;"/>
        <path d="M439.852,134.46C439.852,127.199 441.246,120.675 444.033,114.89C446.82,109.104 450.756,104.595 455.839,101.362C460.922,98.13 466.672,96.514 473.09,96.514C479.462,96.514 485.177,98.083 490.237,101.222C495.296,104.361 499.243,108.811 502.077,114.573C504.912,120.336 506.352,126.824 506.399,134.039L506.399,137.412C506.399,144.72 505.017,151.255 502.253,157.017C499.489,162.78 495.566,167.277 490.483,170.51C485.4,173.742 479.649,175.358 473.231,175.358C466.813,175.358 461.062,173.765 455.979,170.58C450.896,167.394 446.949,162.932 444.138,157.193C441.327,151.454 439.899,145.001 439.852,137.833L439.852,134.46ZM443.646,137.412C443.646,143.736 444.9,149.533 447.406,154.804C449.912,160.074 453.403,164.185 457.876,167.137C462.35,170.088 467.469,171.564 473.231,171.564C481.898,171.564 488.96,168.308 494.418,161.796C499.876,155.284 502.604,146.898 502.604,136.639L502.604,134.46C502.604,128.229 501.339,122.467 498.81,117.173C496.28,111.88 492.778,107.745 488.304,104.77C483.83,101.796 478.759,100.308 473.09,100.308C464.423,100.308 457.349,103.611 451.868,110.216C446.387,116.822 443.646,125.137 443.646,135.163L443.646,137.412Z" style="fill:white;fill-rule:nonzero;"/>
        <path d="M575.757,173.953L575.757,161.655C573.508,165.872 570.229,169.21 565.919,171.669C561.609,174.129 556.151,175.358 549.546,175.358C541.254,175.358 535.035,172.934 530.889,168.085C526.743,163.236 524.623,156.174 524.529,146.898L524.529,97.919L528.324,97.919L528.324,147.039C528.418,155.097 530.245,161.199 533.805,165.345C537.365,169.491 542.566,171.564 549.405,171.564C556.667,171.564 562.57,169.854 567.114,166.434C571.658,163.014 574.539,158.001 575.757,151.396L575.757,97.919L579.622,97.919L579.622,173.953L575.757,173.953Z" style="fill:white;fill-rule:nonzero;"/>
        <path d="M612.088,77.4L612.088,97.919L629.374,97.919L629.374,101.784L612.088,101.784L612.088,155.753C612.088,161.14 612.966,165.122 614.723,167.699C616.48,170.275 619.419,171.564 623.542,171.564C625.603,171.564 628.11,171.353 631.061,170.931L631.693,174.515C630.147,175.077 627.501,175.358 623.753,175.358C618.225,175.358 614.266,173.824 611.877,170.756C609.488,167.687 608.27,162.85 608.223,156.244L608.223,101.784L594.168,101.784L594.168,97.919L608.223,97.919L608.223,77.4L612.088,77.4Z" style="fill:white;fill-rule:nonzero;"/>
        <path d="M676.456,175.358C670.319,175.358 664.686,173.707 659.556,170.404C654.426,167.101 650.409,162.569 647.505,156.807C644.6,151.044 643.148,144.65 643.148,137.622L643.148,134.46C643.148,127.433 644.553,120.991 647.364,115.135C650.175,109.28 654.04,104.712 658.959,101.433C663.878,98.153 669.242,96.514 675.051,96.514C683.531,96.514 690.464,99.535 695.851,105.579C701.239,111.622 703.933,119.563 703.933,129.401L703.933,133.406L646.942,133.406L646.942,137.552C646.942,143.736 648.242,149.463 650.842,154.734C653.443,160.004 657.026,164.138 661.594,167.137C666.162,170.135 671.116,171.634 676.456,171.634C681.563,171.634 685.908,170.779 689.492,169.069C693.076,167.359 696.25,164.724 699.014,161.163L701.684,163.061C696.015,171.259 687.606,175.358 676.456,175.358ZM675.051,100.308C667.649,100.308 661.372,103.06 656.218,108.565C651.065,114.07 648.043,121.085 647.153,129.611L700.138,129.611L700.138,128.698C700.138,123.545 699.049,118.754 696.87,114.327C694.692,109.9 691.694,106.457 687.876,103.997C684.058,101.538 679.783,100.308 675.051,100.308Z" style="fill:white;fill-rule:nonzero;"/>
        <path d="M768.512,155.331C768.512,146.102 760.642,139.824 744.901,136.498C735.438,134.484 728.856,131.895 725.155,128.733C721.454,125.571 719.603,121.226 719.603,115.698C719.603,110.123 721.957,105.532 726.666,101.924C731.374,98.317 737.499,96.514 745.042,96.514C753.24,96.514 759.822,98.469 764.788,102.381C769.754,106.293 772.237,111.575 772.237,118.227L768.372,118.227C768.372,113.121 766.217,108.858 761.907,105.438C757.597,102.018 751.975,100.308 745.042,100.308C738.389,100.308 733.119,101.76 729.231,104.665C725.342,107.57 723.398,111.2 723.398,115.557C723.398,118.977 724.124,121.659 725.576,123.603C727.029,125.547 729.394,127.304 732.674,128.874C735.953,130.443 740.732,131.954 747.009,133.406C753.287,134.858 758.253,136.568 761.907,138.536C765.561,140.504 768.208,142.834 769.848,145.528C771.487,148.222 772.307,151.513 772.307,155.401C772.307,161.398 769.848,166.223 764.929,169.877C760.01,173.531 753.568,175.358 745.604,175.358C737.078,175.358 730.203,173.426 724.979,169.561C719.756,165.696 717.144,160.718 717.144,154.628L720.938,154.628C721.313,159.969 723.667,164.127 728.001,167.101C732.334,170.076 738.202,171.564 745.604,171.564C752.397,171.564 757.913,169.983 762.153,166.82C766.393,163.658 768.512,159.828 768.512,155.331Z" style="fill:white;fill-rule:nonzero;"/>
    </g>
    <g transform="matrix(0.834071,0,0,0.78473,177.472,86.108)">
        <g transform="matrix(1,0,0,1,-52.6375,10.8018)">

            <animateMotion path="M0,0 S0,0, 0,2 S0,2, 0,-2 S0,-2, 0,0" begin="0s" dur="1s" repeatCount="indefinite" />

            <path d="M534.802,468.768C534.802,463.066 530.447,458.438 525.083,458.438L503.201,458.438C497.837,458.438 493.482,463.066 493.482,468.768L493.482,489.428C493.482,495.129 497.837,499.758 503.201,499.758L525.083,499.758C530.447,499.758 534.802,495.129 534.802,489.428L534.802,468.768Z" style="fill:rgb(43,45,81);"/>
            <g transform="matrix(1,0,0,1,522.996,0)">
                <path d="M534.802,468.768C534.802,463.066 530.447,458.438 525.083,458.438L503.201,458.438C497.837,458.438 493.482,463.066 493.482,468.768L493.482,489.428C493.482,495.129 497.837,499.758 503.201,499.758L525.083,499.758C530.447,499.758 534.802,495.129 534.802,489.428L534.802,468.768Z" style="fill:rgb(43,45,81);"/>
            </g>
            <g transform="matrix(1,0,0,1,324.574,0)">
                <path d="M534.802,468.768C534.802,463.066 530.447,458.438 525.083,458.438L503.201,458.438C497.837,458.438 493.482,463.066 493.482,468.768L493.482,489.428C493.482,495.129 497.837,499.758 503.201,499.758L525.083,499.758C530.447,499.758 534.802,495.129 534.802,489.428L534.802,468.768Z" style="fill:rgb(43,45,81);"/>
            </g>
            <g transform="matrix(1,0,0,1,162.102,0)">
                <path d="M534.802,468.768C534.802,463.066 530.447,458.438 525.083,458.438L503.201,458.438C497.837,458.438 493.482,463.066 493.482,468.768L493.482,489.428C493.482,495.129 497.837,499.758 503.201,499.758L525.083,499.758C530.447,499.758 534.802,495.129 534.802,489.428L534.802,468.768Z" style="fill:rgb(43,45,81);"/>
            </g>
            <g transform="matrix(1.09837,0,0,1,-75.6121,0.308594)">
                <path d="M1089.29,499.221C1089.29,493.595 1085.38,489.028 1080.56,489.028L468.577,489.028C463.758,489.028 459.845,493.595 459.845,499.221C459.845,504.847 463.758,509.414 468.577,509.414L1080.56,509.414C1085.38,509.414 1089.29,504.847 1089.29,499.221Z" style="fill:rgb(72,73,112);"/>
            </g>
            <path d="M511.576,481.34C431.602,475.262 401.485,455.572 393.904,431.279C373.14,364.74 410.486,280.178 511.576,268.779L511.576,268.674L925.004,268.674L925.004,268.753C1102.36,279.885 1241.38,377.197 1180.98,437.285C1129.36,488.645 975.057,482.182 923.723,481.411L511.576,481.411L511.576,481.34Z" style="fill:rgb(224,237,255);"/>
            <clipPath id="_clip1">
                <path d="M511.576,481.34C431.602,475.262 401.485,455.572 393.904,431.279C373.14,364.74 410.486,280.178 511.576,268.779L511.576,268.674L925.004,268.674L925.004,268.753C1102.36,279.885 1241.38,377.197 1180.98,437.285C1129.36,488.645 975.057,482.182 923.723,481.411L511.576,481.411L511.576,481.34Z"/>
            </clipPath>
            <g clip-path="url(#_clip1)">
                <g transform="matrix(1.68879,0,0,1.25594,-670.019,-83.7798)">
                    <path d="M1104.38,335.497C1104.38,328.409 1100.36,322.654 1095.4,322.654L979.88,322.654C974.92,322.654 970.893,328.409 970.893,335.497L970.893,361.185C970.893,368.273 974.92,374.029 979.88,374.029L1095.4,374.029C1100.36,374.029 1104.38,368.273 1104.38,361.185L1104.38,335.497Z"/>
                </g>
                <g transform="matrix(0.581665,0,0,0.62037,431.851,130.851)">
                    <path d="M1119.78,332.742C1119.78,329.327 1117,326.554 1113.57,326.554L992.704,326.554C989.277,326.554 986.495,329.327 986.495,332.742C986.495,336.157 989.277,338.929 992.704,338.929L1113.57,338.929C1117,338.929 1119.78,336.157 1119.78,332.742Z" style="fill:white;"/>
                </g>
                <g transform="matrix(0.180905,0,0,0.62037,910.536,130.851)">
                    <path d="M1119.78,332.742C1119.78,329.327 1110.84,326.554 1099.82,326.554L1006.46,326.554C995.44,326.554 986.495,329.327 986.495,332.742C986.495,336.157 995.44,338.929 1006.46,338.929L1099.82,338.929C1110.84,338.929 1119.78,336.157 1119.78,332.742Z" style="fill:white;"/>
                </g>
                <g transform="matrix(1,0,0,0.714977,0,119.043)">
                    <rect x="366.441" y="417.66" width="843.984" height="34.464" style="fill:rgb(255,0,103);"/>
                </g>
            </g>
            <g transform="matrix(1.79082,0,0,0.782741,-375.397,-0.180125)">
                <path d="M679.245,376.186C679.245,367.417 676.318,360.297 672.711,360.297L539.774,360.297C536.168,360.297 533.24,367.417 533.24,376.186C533.24,384.956 536.168,392.076 539.774,392.076L672.711,392.076C676.318,392.076 679.245,384.956 679.245,376.186Z" style="fill:white;"/>
            </g>
            <g transform="matrix(0.367451,0,0,0.782741,657.173,-0.180125)">
                <path d="M679.245,376.186C679.245,367.417 664.976,360.297 647.4,360.297L565.085,360.297C547.509,360.297 533.24,367.417 533.24,376.186C533.24,384.956 547.509,392.076 565.085,392.076L647.4,392.076C664.976,392.076 679.245,384.956 679.245,376.186Z" style="fill:white;"/>
            </g>
        </g>
        <g>
            <animateMotion path="M0,0 S0,0, 0,2 S0,2, 0,-2 S0,-2, 0,0" begin="0s" dur="1s" repeatCount="indefinite"/>

            <g transform="matrix(0.740536,0,0,0.673955,97.0895,126.144)">
            <path d="M287.662,351.768C287.662,345.359 283.207,340.156 277.72,340.156L94.982,340.156C89.494,340.156 85.039,345.359 85.039,351.768C85.039,358.177 89.494,363.38 94.982,363.38L277.72,363.38C283.207,363.38 287.662,358.177 287.662,351.768Z" style="fill:rgb(149,189,243);"/>

            <animateMotion path="M0,0 S0,0, -2,0 S-2,0, 1,0 S1,0, 0,0" begin="0s" dur="1s" repeatCount="indefinite"/>

            </g>

            <g transform="matrix(0.933339,0,0,0.641287,-13.8644,174.416)">
                <path d="M287.662,351.768C287.662,345.359 284.299,340.156 280.156,340.156L92.545,340.156C88.402,340.156 85.039,345.359 85.039,351.768C85.039,358.177 88.402,363.38 92.545,363.38L280.156,363.38C284.299,363.38 287.662,358.177 287.662,351.768Z" style="fill:rgb(149,189,243);"/>

                <animateMotion path="M0,0 S0,0, 1,0 S2,0, -2,0 S-2,0, 0,0" begin="0s" dur="1s" repeatCount="indefinite"/>

            </g>

            <g transform="matrix(0.919563,0,0,0.682837,45.5903,199.977)">
                <path d="M287.662,351.768C287.662,345.359 284.027,340.156 279.55,340.156L93.151,340.156C88.674,340.156 85.039,345.359 85.039,351.768C85.039,358.177 88.674,363.38 93.151,363.38L279.55,363.38C284.027,363.38 287.662,358.177 287.662,351.768Z" style="fill:rgb(149,189,243);"/>

                <animateMotion path="M0,0 S0,0, 2,0 S2,0, -1,0 S-1,0, 0,0" begin="0s" dur="1s" repeatCount="indefinite"/>

            </g>
        </g>
    </g>
</svg>
