<?xml version="1.0" encoding="UTF-8" standalone="no"?><!DOCTYPE svg PUBLIC "-//W3C//DTD SVG 1.1//EN" "http://www.w3.org/Graphics/SVG/1.1/DTD/svg11.dtd"><svg width="100%" height="100%" viewBox="0 0 1200 550" version="1.1" xmlns="http://www.w3.org/2000/svg" xmlns:xlink="http://www.w3.org/1999/xlink" xml:space="preserve" style="fill-rule:evenodd;clip-rule:evenodd;stroke-linejoin:round;stroke-miterlimit:1.41421;"><g id="Spud"><path d="M686.462,104.17c14.047,-27.652 35.942,-41.588 112.956,-41.881c44.909,-0.17 88.644,36.571 113.154,41.533c53.267,10.784 94.648,33.299 129.149,62.049c44.369,36.974 73.349,70.33 79.16,133.845c5.811,63.516 -42.144,139.683 -66.641,161.922c-40.092,36.394 -106.433,29.062 -157.946,11.922c-51.514,-17.139 -82.79,-86.552 -105.124,-116.752c-22.334,-30.199 -112.182,-124.172 -117.723,-171.756c-5.54,-47.584 3.611,-62.372 13.015,-80.882Z" style="fill:#3d3b91;"/><path d="M731.375,71.455c10.315,-2.3 18.961,-4.967 41.729,-5.972c7.184,-0.317 26.331,-0.844 34.137,-0.014c16.385,1.742 30.337,7.472 44.094,13.124c28.487,11.702 45.857,24.774 57.357,26.873c20.848,3.805 55.559,12.648 96.97,38.031c49.994,30.643 82.991,69.511 98.465,108.143c12.085,30.168 9.068,72.337 -9.509,99.716c-28.684,42.275 -62.874,50.705 -128.242,49.1c-93.948,-2.307 -174.23,-92.629 -202.754,-117.067c-94.292,-80.783 -80.257,-132.131 -74.251,-162.15c7.069,-35.335 21.729,-45.263 42.004,-49.784Z" style="fill:#4946c9;"/></g><g id="Eyes"><path d="M941.784,373.897c-0.217,3.516 -3.717,6.165 -7.811,5.913c-4.095,-0.252 -7.243,-3.311 -7.026,-6.827c0.216,-3.516 3.716,-6.166 7.811,-5.913c4.094,0.252 7.242,3.311 7.026,6.827Z" style="fill:#3d3b91;"/><path d="M717.521,129.735c-1.948,-2.935 -0.754,-7.159 2.664,-9.428c3.418,-2.268 7.774,-1.727 9.722,1.208c1.948,2.935 0.754,7.159 -2.664,9.428c-3.418,2.268 -7.774,1.727 -9.722,-1.208Z" style="fill:#3d3b91;"/><path d="M951.485,143.744c2.685,-3.105 7.8,-3.088 11.417,0.039c3.616,3.126 4.373,8.186 1.688,11.291c-2.685,3.105 -7.8,3.088 -11.417,-0.038c-3.616,-3.127 -4.373,-8.186 -1.688,-11.292Z" style="fill:#3d3b91;"/><path d="M951.485,143.744c2.685,-3.105 7.8,-3.088 11.417,0.039c3.616,3.126 4.373,8.186 1.688,11.291c-2.685,3.105 -7.8,3.088 -11.417,-0.038c-3.616,-3.127 -4.373,-8.186 -1.688,-11.292Z" style="fill:#3d3b91;"/><path d="M1076.26,225.016c3.228,2.536 3.452,7.647 0.499,11.406c-2.953,3.76 -7.971,4.754 -11.2,2.218c-3.228,-2.536 -3.451,-7.647 -0.498,-11.406c2.953,-3.76 7.971,-4.753 11.199,-2.218Z" style="fill:#3d3b91;"/><path d="M958.512,375.873c-0.185,3.002 -2.508,5.306 -5.184,5.141c-2.676,-0.165 -4.699,-2.736 -4.514,-5.738c0.185,-3.002 2.508,-5.305 5.184,-5.141c2.676,0.165 4.699,2.736 4.514,5.738Z" style="fill:#3d3b91;"/><path d="M702.987,138.248c-1.664,-2.505 -1.2,-5.744 1.034,-7.227c2.234,-1.482 5.398,-0.652 7.061,1.854c1.663,2.506 1.2,5.745 -1.034,7.227c-2.234,1.483 -5.398,0.652 -7.061,-1.854Z" style="fill:#3d3b91;"/><path d="M937.378,130.094c2.293,-2.651 6.073,-3.145 8.437,-1.101c2.363,2.043 2.422,5.855 0.129,8.507c-2.292,2.651 -6.072,3.145 -8.436,1.101c-2.364,-2.044 -2.422,-5.855 -0.13,-8.507Z" style="fill:#3d3b91;"/><path d="M949.014,361.57c-0.117,1.897 -1.317,3.369 -2.677,3.285c-1.36,-0.084 -2.37,-1.692 -2.253,-3.589c0.116,-1.896 1.316,-3.368 2.676,-3.285c1.361,0.084 2.371,1.692 2.254,3.589Z" style="fill:#3d3b91;"/><path d="M719.19,143.928c-1.051,-1.584 -0.982,-3.481 0.153,-4.235c1.136,-0.754 2.911,-0.08 3.962,1.503c1.051,1.584 0.982,3.481 -0.153,4.235c-1.136,0.754 -2.911,0.08 -3.962,-1.503Z" style="fill:#3d3b91;"/><path d="M936.076,150.06c1.448,-1.675 3.6,-2.192 4.801,-1.153c1.202,1.039 1.002,3.243 -0.447,4.918c-1.448,1.675 -3.6,2.192 -4.801,1.153c-1.202,-1.039 -1.002,-3.242 0.447,-4.918Z" style="fill:#3d3b91;"/><path d="M1069.23,209.921c1.742,1.368 2.359,3.493 1.378,4.742c-0.981,1.249 -3.192,1.153 -4.933,-0.215c-1.742,-1.368 -2.359,-3.493 -1.378,-4.742c0.981,-1.249 3.192,-1.153 4.933,0.215Z" style="fill:#3d3b91;"/><path d="M1069.23,209.921c1.742,1.368 2.359,3.493 1.378,4.742c-0.981,1.249 -3.192,1.153 -4.933,-0.215c-1.742,-1.368 -2.359,-3.493 -1.378,-4.742c0.981,-1.249 3.192,-1.153 4.933,0.215Z" style="fill:#3d3b91;"/><path d="M921.662,360.359c1.591,-1.54 3.78,-1.865 4.885,-0.723c1.105,1.141 0.71,3.318 -0.881,4.859c-1.591,1.54 -3.78,1.864 -4.885,0.723c-1.105,-1.141 -0.71,-3.319 0.881,-4.859Z" style="fill:#3d3b91;"/></g><g><path d="M286.371,148.485c0,-4.36 -1.019,-8.051 -3.058,-11.074c-2.04,-3.024 -5.25,-5.696 -9.633,-8.016c-4.383,-2.32 -11.004,-4.699 -19.864,-7.137c-8.859,-2.437 -15.504,-4.898 -19.933,-7.383c-4.43,-2.484 -7.676,-5.367 -9.738,-8.648c-2.063,-3.281 -3.094,-7.266 -3.094,-11.953c0,-7.453 3.14,-13.488 9.422,-18.106c6.281,-4.617 14.461,-6.925 24.539,-6.925c6.562,0 12.457,1.277 17.683,3.832c5.227,2.554 9.27,6.14 12.129,10.757c2.86,4.618 4.289,9.833 4.289,15.645l-3.797,0c0,-7.641 -2.812,-13.957 -8.437,-18.949c-5.625,-4.992 -12.914,-7.488 -21.867,-7.488c-9,0 -16.278,2.003 -21.832,6.011c-5.555,4.008 -8.332,9.035 -8.332,15.082c0,6.141 2.414,11.086 7.242,14.836c4.828,3.75 12.797,7.067 23.906,9.949c11.109,2.883 19.242,6.223 24.399,10.02c6.562,4.828 9.843,11.297 9.843,19.406c0,5.156 -1.453,9.715 -4.359,13.676c-2.906,3.961 -7.031,7.02 -12.375,9.176c-5.344,2.156 -11.344,3.234 -18,3.234c-7.406,0 -14.063,-1.23 -19.969,-3.691c-5.906,-2.461 -10.348,-5.965 -13.324,-10.512c-2.977,-4.547 -4.465,-9.914 -4.465,-16.102l3.797,0c0,8.391 3.141,14.907 9.422,19.547c6.281,4.641 14.461,6.961 24.539,6.961c8.953,0 16.336,-2.051 22.148,-6.152c5.813,-4.102 8.719,-9.434 8.719,-15.996Z" style="fill:#fff;fill-rule:nonzero;"/><path d="M366.387,135.688c0,11.859 -2.555,21.281 -7.664,28.266c-5.11,6.984 -12.071,10.476 -20.883,10.476c-5.766,0 -10.899,-1.172 -15.399,-3.515c-4.5,-2.344 -8.015,-5.579 -10.546,-9.704l0,41.063l-3.797,0l0,-105.328l3.797,0l0,13.57c2.625,-4.828 6.164,-8.531 10.617,-11.109c4.453,-2.578 9.515,-3.867 15.187,-3.867c8.906,0 15.914,3.41 21.024,10.23c5.109,6.82 7.664,16.395 7.664,28.723l0,1.195Zm-3.867,-1.477c0,-10.921 -2.168,-19.464 -6.504,-25.629c-4.336,-6.164 -10.418,-9.246 -18.246,-9.246c-6.375,0 -11.79,1.653 -16.243,4.957c-4.453,3.305 -7.664,8.051 -9.632,14.239l0,35.578c1.968,5.25 5.191,9.316 9.668,12.199c4.476,2.883 9.925,4.324 16.347,4.324c7.781,0 13.828,-3.093 18.141,-9.281c4.312,-6.187 6.469,-15.234 6.469,-27.141Z" style="fill:#fff;fill-rule:nonzero;"/><path d="M438.035,173.024l0,-12.305c-2.25,4.219 -5.531,7.559 -9.844,10.02c-4.312,2.461 -9.773,3.691 -16.382,3.691c-8.297,0 -14.52,-2.426 -18.668,-7.277c-4.149,-4.852 -6.27,-11.918 -6.364,-21.199l0,-49.008l3.797,0l0,49.148c0.094,8.063 1.922,14.168 5.485,18.317c3.562,4.148 8.765,6.222 15.609,6.222c7.266,0 13.172,-1.711 17.719,-5.133c4.547,-3.421 7.429,-8.437 8.648,-15.046l0,-53.508l3.867,0l0,76.078l-3.867,0Z" style="fill:#fff;fill-rule:nonzero;"/><path d="M462.363,134.211c0,-12.14 2.555,-21.621 7.664,-28.441c5.11,-6.82 12.118,-10.23 21.024,-10.23c5.719,0 10.769,1.289 15.152,3.867c4.383,2.578 7.934,6.422 10.652,11.531l0,-45.914l3.797,0l0,108l-3.797,0l0,-12.164c-2.578,4.312 -6.117,7.652 -10.617,10.019c-4.5,2.368 -9.609,3.551 -15.328,3.551c-8.812,0 -15.773,-3.492 -20.883,-10.476c-5.109,-6.985 -7.664,-16.571 -7.664,-28.758l0,-0.985Zm3.938,1.477c0,10.781 2.133,19.301 6.398,25.559c4.266,6.257 10.313,9.386 18.141,9.386c6.281,0 11.648,-1.394 16.101,-4.183c4.454,-2.789 7.758,-6.879 9.914,-12.27l0,-35.648c-4.359,-12.797 -12.984,-19.196 -25.875,-19.196c-7.781,0 -13.839,3.071 -18.175,9.211c-4.336,6.141 -6.504,15.188 -6.504,27.141Z" style="fill:#fff;fill-rule:nonzero;"/><path d="M636.246,122.258l-51.328,0l0,46.969l58.5,0l0,3.797l-62.297,0l0,-102.375l62.297,0l0,3.797l-58.5,0l0,44.015l51.328,0l0,3.797Z" style="fill:#fff;fill-rule:nonzero;"/><path d="M664.934,114.665c2.484,-5.907 6.14,-10.571 10.968,-13.993c4.828,-3.422 10.172,-5.132 16.032,-5.132c8.156,0 14.214,2.308 18.175,6.925c3.961,4.617 5.965,11.59 6.012,20.918l0,49.641l-3.797,0l0,-49.781c-0.047,-8.157 -1.711,-14.192 -4.992,-18.106c-3.281,-3.914 -8.484,-5.871 -15.609,-5.871c-6.563,0 -12.246,2.332 -17.051,6.996c-4.805,4.664 -8.051,10.676 -9.738,18.035l0,48.727l-3.797,0l0,-76.078l3.797,0l0,17.719Z" style="fill:#fff;fill-rule:nonzero;"/><path d="M736.371,134.211c0,-12.14 2.555,-21.621 7.664,-28.441c5.11,-6.82 12.117,-10.23 21.024,-10.23c5.671,0 10.711,1.3 15.117,3.902c4.406,2.601 7.945,6.41 10.617,11.426l0,-13.922l3.867,0l0,74.742c0,10.031 -2.578,17.871 -7.734,23.519c-5.156,5.649 -12.164,8.473 -21.024,8.473c-5.109,0 -9.785,-1.101 -14.027,-3.305c-4.242,-2.203 -7.863,-5.367 -10.863,-9.492l2.672,-2.531c2.953,3.75 6.187,6.621 9.703,8.613c3.515,1.992 7.64,2.989 12.375,2.989c7.828,0 13.922,-2.379 18.281,-7.137c4.359,-4.758 6.609,-11.473 6.75,-20.145l0,-11.672c-2.625,4.313 -6.176,7.629 -10.652,9.95c-4.477,2.32 -9.551,3.48 -15.223,3.48c-8.813,0 -15.773,-3.492 -20.883,-10.476c-5.109,-6.985 -7.664,-16.571 -7.664,-28.758l0,-0.985Zm3.867,1.477c0,10.875 2.157,19.418 6.469,25.629c4.313,6.211 10.359,9.316 18.141,9.316c6.422,0 11.882,-1.488 16.382,-4.465c4.5,-2.976 7.688,-7.16 9.563,-12.55l0,-34.524c-4.125,-13.172 -12.727,-19.758 -25.805,-19.758c-7.828,0 -13.91,3.071 -18.246,9.211c-4.336,6.141 -6.504,15.188 -6.504,27.141Z" style="fill:#fff;fill-rule:nonzero;"/><path d="M823.629,173.024l-3.797,0l0,-76.078l3.797,0l0,76.078Zm-5.766,-99.844c0,-1.078 0.375,-2.004 1.125,-2.777c0.75,-0.774 1.664,-1.16 2.742,-1.16c1.079,0 2.004,0.386 2.778,1.16c0.773,0.773 1.16,1.699 1.16,2.777c0,1.078 -0.387,1.992 -1.16,2.742c-0.774,0.75 -1.699,1.125 -2.778,1.125c-1.078,0 -1.992,-0.375 -2.742,-1.125c-0.75,-0.75 -1.125,-1.664 -1.125,-2.742Z" style="fill:#fff;fill-rule:nonzero;"/><path d="M852.387,114.665c2.484,-5.907 6.14,-10.571 10.968,-13.993c4.829,-3.422 10.172,-5.132 16.032,-5.132c8.156,0 14.215,2.308 18.175,6.925c3.961,4.617 5.965,11.59 6.012,20.918l0,49.641l-3.797,0l0,-49.781c-0.047,-8.157 -1.711,-14.192 -4.992,-18.106c-3.281,-3.914 -8.484,-5.871 -15.609,-5.871c-6.563,0 -12.246,2.332 -17.051,6.996c-4.805,4.664 -8.051,10.676 -9.738,18.035l0,48.727l-3.797,0l0,-76.078l3.797,0l0,17.719Z" style="fill:#fff;fill-rule:nonzero;"/><path d="M954.762,174.43c-6.141,0 -11.778,-1.652 -16.91,-4.957c-5.133,-3.305 -9.153,-7.84 -12.059,-13.605c-2.906,-5.766 -4.359,-12.164 -4.359,-19.196l0,-3.164c0,-7.031 1.406,-13.476 4.218,-19.336c2.813,-5.859 6.68,-10.429 11.602,-13.711c4.922,-3.281 10.289,-4.921 16.101,-4.921c8.485,0 15.422,3.023 20.813,9.07c5.391,6.047 8.086,13.992 8.086,23.836l0,4.008l-57.024,0l0,4.148c0,6.188 1.301,11.918 3.903,17.191c2.601,5.274 6.187,9.411 10.758,12.411c4.57,3 9.527,4.5 14.871,4.5c5.109,0 9.457,-0.856 13.043,-2.567c3.586,-1.711 6.761,-4.347 9.527,-7.91l2.672,1.898c-5.672,8.204 -14.086,12.305 -25.242,12.305Zm-1.407,-75.094c-7.406,0 -13.687,2.754 -18.843,8.262c-5.157,5.508 -8.18,12.527 -9.071,21.059l53.016,0l0,-0.914c0,-5.157 -1.09,-9.95 -3.27,-14.379c-2.179,-4.43 -5.179,-7.875 -9,-10.336c-3.82,-2.461 -8.097,-3.692 -12.832,-3.692Z" style="fill:#fff;fill-rule:nonzero;"/><path d="M632.027,317.024l-61.242,0l0,-3.797l34.945,-40.289c5.719,-6.703 9.973,-12.656 12.762,-17.859c2.789,-5.204 4.184,-9.985 4.184,-14.344c0,-7.5 -2.18,-13.324 -6.539,-17.473c-4.36,-4.148 -10.5,-6.222 -18.422,-6.222c-4.781,0 -9.141,1.148 -13.078,3.445c-3.938,2.297 -7.02,5.472 -9.246,9.527c-2.227,4.055 -3.34,8.567 -3.34,13.535l-3.797,0c0,-5.484 1.266,-10.57 3.797,-15.257c2.531,-4.688 6.047,-8.368 10.547,-11.04c4.5,-2.671 9.539,-4.007 15.117,-4.007c9.094,0 16.172,2.414 21.234,7.242c5.063,4.828 7.594,11.578 7.594,20.25c0,7.969 -4.477,17.508 -13.43,28.617l-6.398,7.805l-30.938,36.07l56.25,0l0,3.797Z" style="fill:#fff;fill-rule:nonzero;"/></g></svg>