<?xml version="1.0" encoding="UTF-8" standalone="no"?><!DOCTYPE svg PUBLIC "-//W3C//DTD SVG 1.1//EN" "http://www.w3.org/Graphics/SVG/1.1/DTD/svg11.dtd"><svg width="100%" height="100%" viewBox="0 0 1200 550" version="1.1" xmlns="http://www.w3.org/2000/svg" xmlns:xlink="http://www.w3.org/1999/xlink" xml:space="preserve" style="fill-rule:evenodd;clip-rule:evenodd;stroke-linejoin:round;stroke-miterlimit:1.41421;"><g><path d="M597.39,350.104l0,2.602c-2.484,0 -4.5,0.445 -6.047,1.336c-1.547,0.89 -3.023,2.555 -4.43,4.992c-0.937,1.641 -2.414,5.555 -4.429,11.742l-26.578,76.852l-2.813,0l-21.726,-60.961l-21.586,60.961l-2.532,0l-28.336,-79.172c-2.109,-5.906 -3.445,-9.399 -4.007,-10.477c-0.938,-1.781 -2.215,-3.105 -3.832,-3.972c-1.618,-0.867 -3.809,-1.301 -6.575,-1.301l0,-2.602l35.297,0l0,2.602l-1.687,0c-2.485,0 -4.383,0.562 -5.696,1.687c-1.312,1.125 -1.968,2.485 -1.968,4.079c0,1.64 1.031,5.414 3.093,11.32l18.774,53.508l15.82,-45.493l-2.812,-8.015l-2.25,-6.399c-0.985,-2.343 -2.086,-4.406 -3.305,-6.187c-0.609,-0.891 -1.359,-1.641 -2.25,-2.25c-1.172,-0.844 -2.344,-1.453 -3.516,-1.828c-0.89,-0.281 -2.296,-0.422 -4.218,-0.422l0,-2.602l37.125,0l0,2.602l-2.532,0c-2.625,0 -4.546,0.562 -5.765,1.687c-1.219,1.125 -1.828,2.649 -1.828,4.571c0,2.39 1.054,6.562 3.164,12.515l18.281,51.821l18.141,-52.524c2.062,-5.812 3.093,-9.844 3.093,-12.094c0,-1.078 -0.339,-2.085 -1.019,-3.023c-0.68,-0.937 -1.535,-1.594 -2.567,-1.969c-1.781,-0.656 -4.101,-0.984 -6.961,-0.984l0,-2.602l28.477,0Z" style="fill:#fff;fill-rule:nonzero;"/><path d="M769.957,280.84c0,-33.536 -38.662,-60.764 -86.283,-60.764c-47.622,0 -86.284,27.228 -86.284,60.764c0,19.819 13.725,38.393 36.773,49.765l-10.888,41.381l38.042,-32.457c7.291,1.378 14.808,2.075 22.357,2.075c47.621,0 86.283,-27.227 86.283,-60.764Zm-83.868,36.143l22.171,-54.094c1.282,-3.156 2.75,-5.5 4.407,-7.031c1.156,-1.032 2.859,-1.75 5.109,-2.157l0,-1.734l-19.594,0l0,1.734c0.375,0.063 0.641,0.11 0.797,0.141c2.156,0.344 3.688,0.93 4.594,1.758c0.906,0.828 1.359,1.695 1.359,2.601c0,1.407 -0.734,3.922 -2.203,7.547l-15,36.797l-16.172,-37.265c-1.437,-3.313 -2.156,-5.75 -2.156,-7.313c0,-1.125 0.438,-2.047 1.313,-2.766c0.875,-0.718 2.781,-1.218 5.718,-1.5l0,-1.734l-25.968,0l0,1.734c1.937,0.157 3.476,0.508 4.617,1.055c1.14,0.547 2.101,1.305 2.883,2.274c0.5,0.625 1.359,2.343 2.578,5.156l23.812,54.797l1.735,0Z" style="fill:#fff;"/></g><g><path d="M174.891,169.429l4.64,-16.875l24.188,-79.172l4.219,0l24.046,79.172l4.571,16.875l4.781,-16.875l21.094,-79.172l4.148,0l-27.562,102.375l-4.289,0l-25.383,-85.36l-3.586,-10.828l-3.445,10.828l-25.594,85.36l-4.289,0l-27.633,-102.375l4.219,0l21.234,79.172l4.641,16.875Z" style="fill:#fff;fill-rule:nonzero;"/><path d="M329.859,175.757c-0.937,-3.235 -1.406,-7.875 -1.406,-13.922c-3,4.875 -7.101,8.648 -12.305,11.32c-5.203,2.672 -11.085,4.008 -17.648,4.008c-7.031,0 -12.691,-1.91 -16.98,-5.731c-4.29,-3.82 -6.434,-8.8 -6.434,-14.941c0,-6.984 3.152,-12.574 9.457,-16.77c6.305,-4.195 14.684,-6.339 25.137,-6.433l18.773,0l0,-11.109c0,-6.375 -2.004,-11.321 -6.012,-14.836c-4.007,-3.516 -9.738,-5.274 -17.191,-5.274c-6.937,0 -12.727,1.781 -17.367,5.344c-4.641,3.562 -6.961,7.969 -6.961,13.219l-3.797,-0.141c0,-6.187 2.719,-11.437 8.156,-15.75c5.438,-4.312 12.094,-6.469 19.969,-6.469c8.203,0 14.719,2.051 19.547,6.153c4.828,4.101 7.312,9.879 7.453,17.332l0,36.351c0,8.344 0.656,14.016 1.969,17.016l0,0.633l-4.36,0Zm-31.359,-2.321c7.125,0 13.254,-1.593 18.387,-4.781c5.133,-3.187 8.988,-7.664 11.566,-13.43l0,-18.07l-17.578,0c-10.875,0 -19.195,2.156 -24.961,6.469c-4.687,3.515 -7.031,7.898 -7.031,13.148c0,4.641 1.851,8.578 5.555,11.813c3.703,3.234 8.39,4.851 14.062,4.851Z" style="fill:#fff;fill-rule:nonzero;"/><path d="M390.258,102.421l-4.922,-0.422c-6.469,0 -11.883,2.097 -16.242,6.293c-4.36,4.195 -7.219,10.066 -8.578,17.613l0,49.852l-3.797,0l0,-76.078l3.797,0l0,15.82c2.062,-5.297 5.156,-9.492 9.281,-12.586c4.125,-3.094 9.305,-4.641 15.539,-4.641c2.203,0 3.984,0.258 5.344,0.774l-0.422,3.375Z" style="fill:#fff;fill-rule:nonzero;"/><path d="M438.422,102.421l-4.922,-0.422c-6.469,0 -11.883,2.097 -16.242,6.293c-4.36,4.195 -7.219,10.066 -8.578,17.613l0,49.852l-3.797,0l0,-76.078l3.797,0l0,15.82c2.062,-5.297 5.156,-9.492 9.281,-12.586c4.125,-3.094 9.305,-4.641 15.539,-4.641c2.203,0 3.984,0.258 5.344,0.774l-0.422,3.375Z" style="fill:#fff;fill-rule:nonzero;"/><path d="M457.758,175.757l-3.797,0l0,-76.078l3.797,0l0,76.078Zm-5.766,-99.844c0,-1.078 0.375,-2.004 1.125,-2.777c0.75,-0.774 1.664,-1.161 2.742,-1.161c1.079,0 2.004,0.387 2.778,1.161c0.773,0.773 1.16,1.699 1.16,2.777c0,1.078 -0.387,1.992 -1.16,2.742c-0.774,0.75 -1.7,1.125 -2.778,1.125c-1.078,0 -1.992,-0.375 -2.742,-1.125c-0.75,-0.75 -1.125,-1.664 -1.125,-2.742Z" style="fill:#fff;fill-rule:nonzero;"/><path d="M476.953,136.241c0,-7.266 1.395,-13.793 4.184,-19.582c2.789,-5.789 6.726,-10.301 11.812,-13.535c5.086,-3.235 10.84,-4.852 17.262,-4.852c6.375,0 12.094,1.571 17.156,4.711c5.063,3.141 9.012,7.594 11.848,13.36c2.836,5.765 4.277,12.257 4.324,19.476l0,3.375c0,7.313 -1.383,13.852 -4.148,19.617c-2.766,5.766 -6.692,10.266 -11.778,13.5c-5.086,3.235 -10.84,4.852 -17.261,4.852c-6.422,0 -12.176,-1.594 -17.262,-4.781c-5.086,-3.188 -9.035,-7.653 -11.848,-13.395c-2.812,-5.742 -4.242,-12.199 -4.289,-19.371l0,-3.375Zm3.797,2.953c0,6.328 1.254,12.129 3.762,17.402c2.508,5.274 6,9.387 10.476,12.34c4.477,2.953 9.598,4.43 15.364,4.43c8.671,0 15.738,-3.258 21.199,-9.773c5.461,-6.516 8.191,-14.907 8.191,-25.172l0,-2.18c0,-6.234 -1.265,-12 -3.797,-17.297c-2.531,-5.297 -6.035,-9.433 -10.511,-12.41c-4.477,-2.977 -9.551,-4.465 -15.223,-4.465c-8.672,0 -15.75,3.305 -21.234,9.914c-5.485,6.61 -8.227,14.93 -8.227,24.961l0,2.25Z" style="fill:#fff;fill-rule:nonzero;"/><path d="M595.5,102.421l-4.922,-0.422c-6.469,0 -11.883,2.097 -16.242,6.293c-4.359,4.195 -7.219,10.066 -8.578,17.613l0,49.852l-3.797,0l0,-76.078l3.797,0l0,15.82c2.062,-5.297 5.156,-9.492 9.281,-12.586c4.125,-3.094 9.305,-4.641 15.539,-4.641c2.203,0 3.985,0.258 5.344,0.774l-0.422,3.375Z" style="fill:#fff;fill-rule:nonzero;"/><path d="M613.219,79.639l-0.985,17.227l-3.515,0l0.633,-17.086l0,-12.023l3.867,0l0,11.882Z" style="fill:#fff;fill-rule:nonzero;"/><path d="M676.43,157.124c0,-9.235 -7.875,-15.516 -23.625,-18.844c-9.469,-2.016 -16.055,-4.605 -19.758,-7.769c-3.703,-3.165 -5.555,-7.512 -5.555,-13.043c0,-5.579 2.356,-10.172 7.067,-13.782c4.711,-3.609 10.839,-5.414 18.386,-5.414c8.203,0 14.789,1.957 19.758,5.871c4.969,3.914 7.453,9.2 7.453,15.856l-3.867,0c0,-5.11 -2.156,-9.375 -6.469,-12.797c-4.312,-3.422 -9.937,-5.133 -16.875,-5.133c-6.656,0 -11.929,1.453 -15.82,4.36c-3.891,2.906 -5.836,6.539 -5.836,10.898c0,3.422 0.727,6.105 2.18,8.051c1.453,1.945 3.82,3.703 7.101,5.273c3.282,1.57 8.063,3.082 14.344,4.535c6.281,1.453 11.25,3.164 14.906,5.133c3.657,1.969 6.305,4.301 7.946,6.996c1.64,2.696 2.461,5.989 2.461,9.879c0,6 -2.461,10.828 -7.383,14.485c-4.922,3.656 -11.367,5.484 -19.336,5.484c-8.531,0 -15.41,-1.934 -20.637,-5.801c-5.226,-3.867 -7.84,-8.848 -7.84,-14.941l3.797,0c0.375,5.343 2.731,9.504 7.067,12.48c4.335,2.977 10.207,4.465 17.613,4.465c6.797,0 12.316,-1.582 16.558,-4.746c4.243,-3.164 6.364,-6.996 6.364,-11.496Z" style="fill:#fff;fill-rule:nonzero;"/><path d="M764.531,165.772l2.039,6.188l2.039,-6.188l34.383,-92.39l4.149,0l-38.25,102.375l-4.641,0l-38.25,-102.375l4.148,0l34.383,92.39Z" style="fill:#fff;fill-rule:nonzero;"/><path d="M812.625,136.241c0,-7.266 1.395,-13.793 4.184,-19.582c2.789,-5.789 6.726,-10.301 11.812,-13.535c5.086,-3.235 10.84,-4.852 17.262,-4.852c6.375,0 12.094,1.571 17.156,4.711c5.063,3.141 9.012,7.594 11.848,13.36c2.836,5.765 4.277,12.257 4.324,19.476l0,3.375c0,7.313 -1.383,13.852 -4.148,19.617c-2.766,5.766 -6.692,10.266 -11.778,13.5c-5.086,3.235 -10.84,4.852 -17.262,4.852c-6.421,0 -12.175,-1.594 -17.261,-4.781c-5.086,-3.188 -9.035,-7.653 -11.848,-13.395c-2.812,-5.742 -4.242,-12.199 -4.289,-19.371l0,-3.375Zm3.797,2.953c0,6.328 1.254,12.129 3.762,17.402c2.507,5.274 6,9.387 10.476,12.34c4.477,2.953 9.598,4.43 15.363,4.43c8.672,0 15.739,-3.258 21.2,-9.773c5.461,-6.516 8.191,-14.907 8.191,-25.172l0,-2.18c0,-6.234 -1.266,-12 -3.797,-17.297c-2.531,-5.297 -6.035,-9.433 -10.512,-12.41c-4.476,-2.977 -9.55,-4.465 -15.222,-4.465c-8.672,0 -15.75,3.305 -21.235,9.914c-5.484,6.61 -8.226,14.93 -8.226,24.961l0,2.25Z" style="fill:#fff;fill-rule:nonzero;"/><path d="M902.344,175.757l-3.797,0l0,-76.078l3.797,0l0,76.078Zm-5.766,-99.844c0,-1.078 0.375,-2.004 1.125,-2.777c0.75,-0.774 1.664,-1.161 2.742,-1.161c1.078,0 2.004,0.387 2.778,1.161c0.773,0.773 1.16,1.699 1.16,2.777c0,1.078 -0.387,1.992 -1.16,2.742c-0.774,0.75 -1.7,1.125 -2.778,1.125c-1.078,0 -1.992,-0.375 -2.742,-1.125c-0.75,-0.75 -1.125,-1.664 -1.125,-2.742Z" style="fill:#fff;fill-rule:nonzero;"/><path d="M953.109,173.366c6.891,0 12.575,-1.828 17.051,-5.484c4.477,-3.657 6.926,-8.719 7.348,-15.188l3.797,0c-0.375,7.36 -3.211,13.277 -8.508,17.754c-5.297,4.477 -11.86,6.715 -19.688,6.715c-9.515,0 -17.074,-3.445 -22.675,-10.336c-5.602,-6.891 -8.403,-16.242 -8.403,-28.055l0,-2.531c0,-11.531 2.801,-20.742 8.403,-27.633c5.601,-6.89 13.113,-10.336 22.535,-10.336c8.062,0 14.718,2.414 19.968,7.242c5.25,4.829 8.04,11.25 8.368,19.266l-3.797,0c-0.328,-6.844 -2.731,-12.34 -7.207,-16.488c-4.477,-4.149 -10.254,-6.223 -17.332,-6.223c-8.485,0 -15.129,3.059 -19.934,9.176c-4.805,6.117 -7.207,14.613 -7.207,25.488l0,2.461c0,10.641 2.426,18.996 7.277,25.067c4.852,6.07 11.52,9.105 20.004,9.105Z" style="fill:#fff;fill-rule:nonzero;"/><path d="M1027.71,177.163c-6.141,0 -11.777,-1.652 -16.91,-4.957c-5.133,-3.305 -9.153,-7.84 -12.059,-13.606c-2.906,-5.765 -4.359,-12.164 -4.359,-19.195l0,-3.164c0,-7.031 1.406,-13.477 4.219,-19.336c2.812,-5.859 6.679,-10.43 11.601,-13.711c4.922,-3.281 10.289,-4.922 16.102,-4.922c8.484,0 15.422,3.024 20.812,9.071c5.391,6.046 8.086,13.992 8.086,23.836l0,4.007l-57.023,0l0,4.149c0,6.187 1.3,11.918 3.902,17.191c2.602,5.274 6.188,9.41 10.758,12.41c4.57,3 9.527,4.5 14.871,4.5c5.109,0 9.457,-0.855 13.043,-2.566c3.586,-1.711 6.762,-4.348 9.527,-7.91l2.672,1.898c-5.672,8.203 -14.086,12.305 -25.242,12.305Zm-1.406,-75.094c-7.407,0 -13.688,2.754 -18.844,8.262c-5.156,5.508 -8.18,12.527 -9.07,21.058l53.015,0l0,-0.914c0,-5.156 -1.09,-9.949 -3.269,-14.379c-2.18,-4.429 -5.18,-7.875 -9,-10.335c-3.821,-2.461 -8.098,-3.692 -12.832,-3.692Z" style="fill:#fff;fill-rule:nonzero;"/></g></svg>