<?xml version="1.0" encoding="UTF-8" standalone="no"?><!DOCTYPE svg PUBLIC "-//W3C//DTD SVG 1.1//EN" "http://www.w3.org/Graphics/SVG/1.1/DTD/svg11.dtd"><svg width="100%" height="100%" viewBox="0 0 1200 550" version="1.1" xmlns="http://www.w3.org/2000/svg" xmlns:xlink="http://www.w3.org/1999/xlink" xml:space="preserve" style="fill-rule:evenodd;clip-rule:evenodd;stroke-linecap:round;stroke-linejoin:round;stroke-miterlimit:1.5;"><g id="Phone"><path d="M904.993,139.487c0,-7.709 -6.259,-13.968 -13.968,-13.968l-145.21,0c-7.709,0 -13.968,6.259 -13.968,13.968l0,341.668c0,7.709 6.259,13.968 13.968,13.968l145.21,0c7.709,0 13.968,-6.259 13.968,-13.968l0,-341.668Z" style="fill:#2e2e2e;"/><path d="M842.187,151.804c0,-0.505 -0.411,-0.916 -0.916,-0.916l-45.702,0c-0.505,0 -0.916,0.411 -0.916,0.916l0,1.832c0,0.506 0.411,0.916 0.916,0.916l45.702,0c0.505,0 0.916,-0.41 0.916,-0.916l0,-1.832Z" style="fill:#4b4b4b;"/><circle cx="818.42" cy="466.31" r="13.737" style="fill:#4b4b4b;"/><rect id="IMG_3236" x="741.115" y="166.961" width="154.61" height="274.456" style="fill:#fa1159;"/><g><circle cx="828.712" cy="294.267" r="34.87" style="fill:none;stroke:#ebeff3;stroke-width:9px;"/><path d="M803.122,319.116l-29.864,29.865" style="fill:none;stroke:#ebeff3;stroke-width:9px;stroke-linecap:square;"/></g></g><path d="M662.047,-111.064c0,-17.123 -13.901,-31.024 -31.024,-31.024l-62.046,0c-17.123,0 -31.024,13.901 -31.024,31.024l0,951.759c0,17.123 13.901,31.024 31.024,31.024l62.046,0c17.123,0 31.024,-13.901 31.024,-31.024l0,-951.759Z" style="fill:#1a1a1a;stroke:#282828;stroke-width:9px;stroke-linecap:square;"/><g id="Watch"><path d="M702.009,297.631c0,-1.109 -0.9,-2.009 -2.008,-2.009l-4.017,0c-1.108,0 -2.008,0.9 -2.008,2.009l0,43.546c0,1.108 0.9,2.008 2.008,2.008l4.017,0c1.108,0 2.008,-0.9 2.008,-2.008l0,-43.546Z" style="fill:#2e2e2e;stroke:#383838;stroke-width:9px;stroke-linecap:square;"/><path d="M713.726,222.384c0,-4.342 -3.525,-7.867 -7.867,-7.867l-15.733,0c-4.342,0 -7.867,3.525 -7.867,7.867l0,40.194c0,4.342 3.525,7.867 7.867,7.867l15.733,0c4.342,0 7.867,-3.525 7.867,-7.867l0,-40.194Z" style="fill:#2e2e2e;stroke:#383838;stroke-width:9px;stroke-linecap:square;"/><path d="M697.993,209.909c0,-25.673 -20.843,-46.516 -46.516,-46.516l-93.031,0c-25.673,0 -46.516,20.843 -46.516,46.516l0,130.182c0,25.673 20.843,46.516 46.516,46.516l93.031,0c25.673,0 46.516,-20.843 46.516,-46.516l0,-130.182Z" style="fill:#2e2e2e;stroke:#383838;stroke-width:9px;stroke-linecap:square;"/><rect x="538.233" y="193.537" width="133.457" height="162.926" style="fill:#fa1159;"/><g><circle cx="615.253" cy="265.078" r="34.87" style="fill:none;stroke:#ebeff3;stroke-width:9px;"/><path d="M589.664,289.927l-29.865,29.865" style="fill:none;stroke:#ebeff3;stroke-width:9px;stroke-linecap:square;"/></g></g><g><path d="M548.707,133.777l35.859,-60.047l4.641,0l-38.602,63.493l0,38.882l-3.796,0l0,-38.882l-38.602,-63.493l5.063,0l35.437,60.047Z" style="fill:#fff;fill-rule:nonzero;"/><path d="M608.684,176.105l-3.797,0l0,-76.078l3.797,0l0,76.078Zm-5.766,-99.843c0,-1.078 0.375,-2.004 1.125,-2.778c0.75,-0.773 1.664,-1.16 2.742,-1.16c1.078,0 2.004,0.387 2.778,1.16c0.773,0.774 1.16,1.7 1.16,2.778c0,1.078 -0.387,1.992 -1.16,2.742c-0.774,0.75 -1.7,1.125 -2.778,1.125c-1.078,0 -1.992,-0.375 -2.742,-1.125c-0.75,-0.75 -1.125,-1.664 -1.125,-2.742Z" style="fill:#fff;fill-rule:nonzero;"/><path d="M691.793,138.769c0,11.86 -2.555,21.282 -7.664,28.266c-5.109,6.984 -12.07,10.477 -20.883,10.477c-5.766,0 -10.898,-1.172 -15.398,-3.516c-4.5,-2.344 -8.016,-5.578 -10.547,-9.703l0,41.062l-3.797,0l0,-105.328l3.797,0l0,13.571c2.625,-4.829 6.164,-8.532 10.617,-11.11c4.453,-2.578 9.516,-3.867 15.187,-3.867c8.907,0 15.915,3.41 21.024,10.231c5.109,6.82 7.664,16.394 7.664,28.722l0,1.195Zm-3.867,-1.476c0,-10.922 -2.168,-19.465 -6.504,-25.629c-4.336,-6.164 -10.418,-9.246 -18.246,-9.246c-6.375,0 -11.789,1.652 -16.242,4.957c-4.454,3.305 -7.664,8.051 -9.633,14.238l0,35.578c1.969,5.25 5.191,9.317 9.668,12.2c4.476,2.882 9.926,4.324 16.347,4.324c7.782,0 13.829,-3.094 18.141,-9.281c4.313,-6.188 6.469,-15.235 6.469,-27.141Z" style="fill:#fff;fill-rule:nonzero;"/></g></svg>